<svg xmlns="http://www.w3.org/2000/svg" width="85" height="50" viewBox="0 0 85 50">
                                <g id="Group_5042" data-name="Group 5042" transform="translate(7142 8437.161)">
                                    <g id="Group_5040" data-name="Group 5040" transform="translate(-7110.323 -8437.161)">
                                        <path id="Path_4757" data-name="Path 4757" d="M-5174.33-1234.744a12.585,12.585,0,0,0-2.034-.068,16.874,16.874,0,0,0-8.448,2.739c-.431.256-.809.57-.458,1.087a.516.516,0,0,0,.312.247.519.519,0,0,0,.4-.041c.279.138.611-.07.9-.247a16.79,16.79,0,0,1,4.741-2.022,13.861,13.861,0,0,1,2.083-.443,3.4,3.4,0,0,1,.914.158c.138.6-.046.848-.74.867a9.727,9.727,0,0,0-8.233,4.528c-.246.366-.521.794-.059,1.117a.468.468,0,0,0,.571.049c.437.223.679-.2.91-.522a8.445,8.445,0,0,1,6.607-3.914,10.326,10.326,0,0,1,1.363.1,6.57,6.57,0,0,1,5.9,4.4,10.469,10.469,0,0,1,.129,5.908c-.094.391-.365.829.277,1.038-.22.272-.607.372-.723.78a9.225,9.225,0,0,1-1.639,3.047c-.233.314-.391.666-.031.98a.569.569,0,0,0,.673.12c.312.138.591-.043.854-.293a7.663,7.663,0,0,0,1.744-2.876c.247-.625-.051-1.187,0-1.774h0c.435-.147.455-.544.558-.889a11.1,11.1,0,0,0,.3-4.1,7.7,7.7,0,0,0-5.3-7.119c-.513-.179-1.052-.288-1.577-.441s-.927-.37-.748-1.006a.832.832,0,0,1,.278-.115h.093a8.365,8.365,0,0,1,6.437,4.365,13.153,13.153,0,0,1,1.422,7.044c-.02.415.028.862.559.889a.7.7,0,0,0,.3-.042.776.776,0,0,0,.17.027c.592.033.645-.423.664-.881a17.219,17.219,0,0,0-.53-5.2,9.789,9.789,0,0,0-8.613-7.507Zm-1.115,1.389a.746.746,0,0,1-.057.649.684.684,0,0,1-.074-.631c.021-.013.042-.025.064-.036l.06.024Zm6.724,13.571a.554.554,0,0,1-.063.068v-.068h.063Z" transform="translate(5186.86 1237.628)"></path>
                                        <path id="Path_4758" data-name="Path 4758" d="M-5174.7-1183.727c-.251-.137-.559.037-.819.2l-.291.187a8.589,8.589,0,0,1-4.406,1.477,10.669,10.669,0,0,1-1.834-.167,7.531,7.531,0,0,1-6.264-5.94,9.673,9.673,0,0,1,.233-4.21c.1-.4.046-.79-.406-.921a.536.536,0,0,0-.432.028l-.039-.014c-.488-.142-.687.224-.778.607a11.616,11.616,0,0,0-.278,4.646,8.96,8.96,0,0,0,9.284,7.225c.141,0,.28,0,.425-.013h.047a9.982,9.982,0,0,0,5.827-1.887c.344-.248.7-.521.427-.987a.51.51,0,0,0-.3-.28.5.5,0,0,0-.4.042Z" transform="translate(5190.132 1208.759)"></path>
                                        <path id="Path_4759" data-name="Path 4759" d="M-5154.007-1168.158a.761.761,0,0,0-.6.067,4.2,4.2,0,0,1-1.323.413h-.034a1.336,1.336,0,0,0-.325.016h-.146c-.49-.034-.9.165-.889.7s.493.63.97.655l.251-.031.222.019a6.43,6.43,0,0,0,2.295-.617c.367-.192.622-.455.4-.894a.6.6,0,0,0-.339-.34.6.6,0,0,0-.477,0Z" transform="translate(5167.708 1191.821)"></path>
                                        <path id="Path_4760" data-name="Path 4760" d="M-5163.783-1204.665a9.692,9.692,0,0,0,.432-2.025,3.32,3.32,0,0,0-1.869-3.5,6.263,6.263,0,0,0-2.584-.368,5.1,5.1,0,0,0-4.829,2.805,19.087,19.087,0,0,0-1.531,6.448,2.836,2.836,0,0,0,2.209,3.037,9.468,9.468,0,0,0,3.161.263h1.234a4.156,4.156,0,0,0,.472-.014c1.281.034,1.719-.371,2.107-1.592.189-.6.072-.758-.558-.748-1.475.025-2.951.04-4.422-.022-1-.042-1.395-.5-1.355-1.32.05-1.187.15-1.456.953-1.512h4.168a1.689,1.689,0,0,0,.211,0h.265a1.858,1.858,0,0,0,1.928-1.426Zm-3.026-.868h-1.394c-.559,0-1.1-.022-1.648,0h-.223c-.392-.016-.4-.239-.307-.625a2.971,2.971,0,0,1,2.538-2.133,2.492,2.492,0,0,1,.99.279c.78.407.663,1.166.577,1.91-.049.388-.207.522-.413.559h-.128Z" transform="translate(5179.22 1220.794)"></path>
                                        <path id="Path_4761" data-name="Path 4761" d="M-5165.447-1213.319a.775.775,0,0,0,.15-.04.594.594,0,0,0,.317.025c.432-.064.507-.415.559-.865-.075-.279-.148-.655-.279-1.006a6.1,6.1,0,0,0-6.414-4.284,9.146,9.146,0,0,0-3.006.521,6.968,6.968,0,0,0-4.164,4.281c-.168.4-.146.77.258.969a.517.517,0,0,0,.514,0c.413.176.66-.117.835-.471l.4-.772a5.727,5.727,0,0,1,4.935-3.215,5.155,5.155,0,0,1,.717.034,4.774,4.774,0,0,1,4.479,4.237C-5166.043-1213.489-5165.874-1213.257-5165.447-1213.319Z" transform="translate(5182.083 1227.04)"></path>
                                        <path id="Path_4762" data-name="Path 4762" d="M-5179.631-1241.083a1.148,1.148,0,0,0,.8-.136,13.236,13.236,0,0,1,4.481-1.03h.2c.634.05,1.272.07,1.9.151a15.094,15.094,0,0,1,6.769,2.736c.278.2.588.36.87.207a.558.558,0,0,0,.726-.279c.278-.41.044-.711-.28-.948a16,16,0,0,0-9.967-3.191,15.691,15.691,0,0,0-5.618,1.147c-.458.181-.907.415-.648,1.006a.551.551,0,0,0,.312.341A.551.551,0,0,0-5179.631-1241.083Z" transform="translate(5183.494 1243.577)"></path>
                                        <path id="Path_4763" data-name="Path 4763" d="M-5181.686-1199.783a32.656,32.656,0,0,0-.919,4.864,6.774,6.774,0,0,0,1.575,4.8,6.829,6.829,0,0,0,4.59,2.169,1.407,1.407,0,0,0,.451-.013h.021c.434.044.835-.028.875-.583.038-.476-.253-.663-.689-.705-.228-.024-.453-.078-.687-.117a5.035,5.035,0,0,1-3.435-2.073,5.049,5.049,0,0,1-.837-3.927c.23-1.367.529-2.722.8-4.077.08-.413.02-.778-.447-.887a.73.73,0,0,0-.454.019h-.019a.625.625,0,0,0-.557.064.626.626,0,0,0-.278.471Z" transform="translate(5185.033 1213.67)"></path>
                                        <path id="Path_4764" data-name="Path 4764" d="M-5188.322-1204.749a.7.7,0,0,0,.362-.037l.108.022c.558.072.688-.34.726-.761a4.782,4.782,0,0,1,.539-1.9.63.63,0,0,0,.107-.543.638.638,0,0,0-.366-.418.6.6,0,0,0-.525,0c-.378-.131-.663.064-.872.426a6.058,6.058,0,0,0-.64,2.15C-5188.938-1205.2-5188.833-1204.818-5188.322-1204.749Z" transform="translate(5189.369 1219.456)"></path>
                                    </g>
                                    <g id="Group_5041" data-name="Group 5041" transform="translate(-7142 -8404.279)">
                                        <g id="Group_5039" data-name="Group 5039" transform="translate(24.786)">
                                            <path id="Path_4757-2" data-name="Path 4757" d="M-5178.676-1234.777a7.634,7.634,0,0,0-1.236-.041,10.254,10.254,0,0,0-5.135,1.665c-.262.156-.491.347-.278.661a.315.315,0,0,0,.189.15.314.314,0,0,0,.242-.025c.17.084.372-.043.548-.15a10.21,10.21,0,0,1,2.883-1.229,8.372,8.372,0,0,1,1.266-.27,2.076,2.076,0,0,1,.556.1c.083.366-.027.516-.45.527a5.911,5.911,0,0,0-5,2.752c-.149.223-.317.482-.036.679a.285.285,0,0,0,.348.03c.265.135.412-.119.553-.317a5.135,5.135,0,0,1,4.016-2.379,6.287,6.287,0,0,1,.829.058,3.991,3.991,0,0,1,3.587,2.676,6.357,6.357,0,0,1,.078,3.591c-.057.238-.222.5.169.631-.134.165-.368.226-.438.474a5.643,5.643,0,0,1-1,1.852c-.143.191-.238.405-.02.6a.346.346,0,0,0,.409.073c.189.084.359-.026.519-.178a4.66,4.66,0,0,0,1.061-1.748c.149-.38-.031-.722,0-1.078h0c.264-.09.276-.331.339-.541a6.745,6.745,0,0,0,.182-2.492,4.681,4.681,0,0,0-3.222-4.327c-.312-.109-.638-.175-.957-.268s-.564-.225-.456-.611a.532.532,0,0,1,.17-.069h.057a5.086,5.086,0,0,1,3.912,2.653,7.99,7.99,0,0,1,.863,4.281c-.011.252.018.524.34.541a.427.427,0,0,0,.185-.025.478.478,0,0,0,.1.016c.36.02.393-.257.4-.535a10.479,10.479,0,0,0-.322-3.16,5.951,5.951,0,0,0-5.235-4.563Zm-.678.844a.453.453,0,0,1-.034.395.415.415,0,0,1-.045-.383.38.38,0,0,1,.039-.022l.036.015Zm4.087,8.248a.326.326,0,0,1-.039.041v-.041h.039Z" transform="translate(5186.292 1236.529)"></path>
                                            <path id="Path_4758-2" data-name="Path 4758" d="M-5180.754-1187.417c-.152-.083-.339.022-.5.122l-.178.113a5.217,5.217,0,0,1-2.678.9,6.451,6.451,0,0,1-1.114-.1,4.576,4.576,0,0,1-3.808-3.61,5.871,5.871,0,0,1,.143-2.559c.058-.241.027-.48-.248-.56a.325.325,0,0,0-.262.017l-.023-.009c-.3-.086-.418.136-.473.369a7.046,7.046,0,0,0-.17,2.824,5.445,5.445,0,0,0,5.643,4.392c.086,0,.17,0,.258-.008h.029a6.068,6.068,0,0,0,3.542-1.147c.209-.151.427-.317.259-.6a.308.308,0,0,0-.18-.17.3.3,0,0,0-.241.026Z" transform="translate(5190.133 1202.631)"></path>
                                            <path id="Path_4759-2" data-name="Path 4759" d="M-5155.311-1168.183a.463.463,0,0,0-.367.041,2.54,2.54,0,0,1-.8.251h-.021a.809.809,0,0,0-.2.01h-.088c-.3-.021-.548.1-.541.426s.3.383.59.4l.152-.019.135.011a3.926,3.926,0,0,0,1.4-.375c.223-.116.378-.276.244-.544a.369.369,0,0,0-.206-.207.367.367,0,0,0-.289,0Z" transform="translate(5163.637 1182.566)"></path>
                                            <path id="Path_4760-2" data-name="Path 4760" d="M-5167.861-1206.982a5.887,5.887,0,0,0,.263-1.231,2.019,2.019,0,0,0-1.136-2.127,3.814,3.814,0,0,0-1.57-.223,3.1,3.1,0,0,0-2.937,1.705,11.6,11.6,0,0,0-.93,3.919,1.724,1.724,0,0,0,1.342,1.846,5.762,5.762,0,0,0,1.922.16h.751a2.552,2.552,0,0,0,.286-.008c.778.021,1.045-.225,1.281-.968.115-.363.044-.461-.339-.454-.9.015-1.794.024-2.688-.013-.606-.026-.848-.3-.823-.8.03-.721.091-.885.579-.919h2.533a1.032,1.032,0,0,0,.129,0h.16a1.128,1.128,0,0,0,1.171-.866Zm-1.839-.527h-.848c-.339,0-.67-.013-1,0h-.136c-.237-.01-.244-.146-.186-.38a1.806,1.806,0,0,1,1.543-1.3,1.513,1.513,0,0,1,.6.169c.475.247.4.709.351,1.161-.028.236-.125.317-.251.34h-.077Z" transform="translate(5177.243 1216.784)"></path>
                                            <path id="Path_4761-2" data-name="Path 4761" d="M-5170.521-1215.749a.519.519,0,0,0,.093-.024.358.358,0,0,0,.192.015c.262-.039.309-.252.339-.525a6.278,6.278,0,0,0-.169-.612,3.708,3.708,0,0,0-3.9-2.6,5.565,5.565,0,0,0-1.827.317,4.237,4.237,0,0,0-2.531,2.6c-.1.242-.088.468.156.589a.316.316,0,0,0,.313,0c.251.107.4-.071.508-.287l.24-.469a3.482,3.482,0,0,1,3-1.954,3.075,3.075,0,0,1,.435.021,2.9,2.9,0,0,1,2.723,2.575C-5170.883-1215.853-5170.78-1215.712-5170.521-1215.749Z" transform="translate(5180.632 1224.089)"></path>
                                            <path id="Path_4762-2" data-name="Path 4762" d="M-5179.959-1242.061a.7.7,0,0,0,.487-.083,8.036,8.036,0,0,1,2.723-.626h.125c.385.031.773.042,1.155.092a9.171,9.171,0,0,1,4.114,1.663c.169.122.357.219.528.126a.338.338,0,0,0,.44-.17c.17-.249.027-.432-.17-.576a9.724,9.724,0,0,0-6.057-1.939,9.534,9.534,0,0,0-3.415.7c-.278.11-.552.252-.395.612a.334.334,0,0,0,.189.207A.336.336,0,0,0-5179.959-1242.061Z" transform="translate(5182.308 1243.577)"></path>
                                            <path id="Path_4763-2" data-name="Path 4763" d="M-5182.052-1200.008a19.751,19.751,0,0,0-.559,2.956,4.113,4.113,0,0,0,.957,2.919,4.153,4.153,0,0,0,2.79,1.318.843.843,0,0,0,.273-.008h.014c.264.027.508-.017.531-.354.023-.29-.153-.4-.418-.429-.139-.015-.276-.047-.417-.071a3.063,3.063,0,0,1-2.089-1.26,3.067,3.067,0,0,1-.508-2.387c.141-.831.322-1.655.485-2.478.048-.251.012-.473-.271-.539a.445.445,0,0,0-.276.011h-.011a.382.382,0,0,0-.339.039.385.385,0,0,0-.17.286Z" transform="translate(5184.086 1208.448)"></path>
                                            <path id="Path_4764-2" data-name="Path 4764" d="M-5188.549-1206.2a.43.43,0,0,0,.221-.022l.066.013c.339.044.417-.207.44-.463a2.892,2.892,0,0,1,.328-1.153.381.381,0,0,0,.064-.33.383.383,0,0,0-.222-.254.369.369,0,0,0-.32,0c-.229-.079-.4.039-.529.259a3.672,3.672,0,0,0-.389,1.307C-5188.923-1206.472-5188.859-1206.24-5188.549-1206.2Z" transform="translate(5189.185 1215.136)"></path>
                                        </g>
                                        <path id="Path_4765" data-name="Path 4765" d="M-5324.522-1226.474l5.031.035,3.717-3.327h11.395l.941,3.4h3.5l-5.122-17.051Zm12.63-6.628,5.11-4.493,1.354,4.493Z" transform="translate(5324.522 1243.449)"></path>
                                        <path id="Path_4766" data-name="Path 4766" d="M-5097.19-1243.461h-18.984l-.868,3.356h17.29l-.972,3.552h-17.394L-5121-1226.4h3.516l1.924-6.841h16.028a2.228,2.228,0,0,0,1.705-1.5l2.068-7.322a1.267,1.267,0,0,0-.373-1.043A1.319,1.319,0,0,0-5097.19-1243.461Z" transform="translate(5158.106 1243.49)"></path>
                                        <path id="Path_4767" data-name="Path 4767" d="M-4974.12-1240.279l.942-3.28h-18.984a2.389,2.389,0,0,0-2.131,1.29l-2.2,7.412c-.17.863.095,1.45,1.086,1.553h15.9l-.971,3.522h-17.394l-.949,3.328h19.349a2.166,2.166,0,0,0,1.892-1.431l2.035-7.229c.17-.945-.241-1.4-1.138-1.461H-4992.5l.993-3.706Z" transform="translate(5058.178 1243.562)"></path>
                                    </g>
                                </g>
                            </svg>