<svg xmlns="http://www.w3.org/2000/svg" width="50.014" height="50" viewBox="0 0 50.014 50">
                                <g id="Group_5523" data-name="Group 5523" transform="translate(5750.389 -825.494)">
                                    <path id="Path_7567" data-name="Path 7567" d="M-5713.71,857.16c0-2.455,0-4.832,0-7.209a1.755,1.755,0,0,1,1.665-1.993v-.606q0-9.609,0-19.218a2.521,2.521,0,0,1,1.677-2.5,2.5,2.5,0,0,1,3.318,2.232c.012.225.006.451.006.677v19.4a4.353,4.353,0,0,1,.638.187,1.688,1.688,0,0,1,1.03,1.661c0,2.43,0,4.86,0,7.373h1.4a3.342,3.342,0,0,1,3.6,3.6q0,3.88,0,7.76a3.346,3.346,0,0,1-3.626,3.635h-.539c0,.763,0,1.5,0,2.241,0,.816-.276,1.09-1.095,1.091q-2.682,0-5.365,0c-.75,0-1.038-.291-1.043-1.038s0-1.487,0-2.262h-26.667c0,.7,0,1.421,0,2.141,0,.892-.261,1.158-1.135,1.159q-2.6,0-5.209,0c-.9,0-1.154-.255-1.156-1.134,0-.709,0-1.419,0-2.2-.317,0-.605.006-.894,0a3.3,3.3,0,0,1-3.265-3.257q-.037-4.244,0-8.489a3.285,3.285,0,0,1,3.273-3.244c1.2-.021,2.4-.006,3.594-.006h29.793Zm-11.719,13.333q10.756,0,21.511,0a1.686,1.686,0,0,0,1.875-1.862q.005-3.958,0-7.916a1.685,1.685,0,0,0-1.9-1.886q-21.434,0-42.867,0a1.692,1.692,0,0,0-1.9,1.888q0,3.88,0,7.76c0,1.424.6,2.017,2.031,2.017Zm13.408-13.37h4.936v-7.434h-4.936Zm3.312-9.154v-.654q0-6.739,0-13.478,0-2.81,0-5.62c0-.668-.3-1.041-.816-1.05-.539-.01-.844.375-.849,1.07,0,.052,0,.1,0,.156q0,9.5,0,18.994v.582Zm-35.793,24.2v1.621h4.083V872.17Zm34.149,1.62h4.1v-1.6h-4.1Z"></path>
                                    <path id="Path_7568" data-name="Path 7568" d="M-5723.372,893.142a21.349,21.349,0,0,1,15.207,6.212c.481.47.5.953.078,1.328-.372.328-.759.3-1.181-.111a20.694,20.694,0,0,0-4.211-3.209,19.522,19.522,0,0,0-23.057,2.8c-.162.154-.318.314-.484.463a.777.777,0,0,1-1.183,0,.775.775,0,0,1,.051-1.181,20.81,20.81,0,0,1,9.06-5.4,26.155,26.155,0,0,1,3.218-.691C-5724.96,893.206-5724.027,893.192-5723.372,893.142Z" transform="translate(-10.292 -58.219)"></path>
                                    <path id="Path_7569" data-name="Path 7569" d="M-5688.647,936.338c-.237.284-.384.6-.624.708a1.039,1.039,0,0,1-.8-.047,3.866,3.866,0,0,1-.725-.649,14.41,14.41,0,0,0-19.771.365c-.545.529-.919.595-1.33.237a.774.774,0,0,1,.005-1.245,15.51,15.51,0,0,1,7.029-4.122,15.826,15.826,0,0,1,15.624,3.974A6.031,6.031,0,0,1-5688.647,936.338Z" transform="translate(-32.917 -90.776)"></path>
                                    <path id="Path_7570" data-name="Path 7570" d="M-5669.574,972.472a3.923,3.923,0,0,1-.641.73c-.324.22-.631.044-.934-.177a18.765,18.765,0,0,0-2.738-1.891,9.2,9.2,0,0,0-10.291,1.638c-.662.615-1.033.682-1.445.259-.429-.44-.341-.841.323-1.471a11.015,11.015,0,0,1,15.2.184A5.92,5.92,0,0,1-5669.574,972.472Z" transform="translate(-55.487 -123.181)"></path>
                                    <path id="Path_7571" data-name="Path 7571" d="M-5655.186,1006.118a5.921,5.921,0,0,1,4.093,1.661c.461.442.507.865.146,1.254s-.8.357-1.265-.05a4.238,4.238,0,0,0-5.949.006c-.462.4-.917.42-1.265.044s-.31-.814.146-1.254A5.977,5.977,0,0,1-5655.186,1006.118Z" transform="translate(-78.077 -155.477)"></path>
                                    <path id="Path_7572" data-name="Path 7572" d="M-5661.5,1079.528a2.48,2.48,0,0,1-2.483,2.491,2.489,2.489,0,0,1-2.467-2.459,2.477,2.477,0,0,1,2.487-2.486A2.466,2.466,0,0,1-5661.5,1079.528Zm-2.5.836a.825.825,0,0,0,.844-.8.827.827,0,0,0-.8-.844.834.834,0,0,0-.846.8A.833.833,0,0,0-5664,1080.365Z" transform="translate(-72.249 -216.54)"></path>
                                    <path id="Path_7573" data-name="Path 7573" d="M-5613.588,1079.556a2.481,2.481,0,0,1-2.46,2.462,2.486,2.486,0,0,1-2.49-2.485,2.481,2.481,0,0,1,2.514-2.46A2.475,2.475,0,0,1-5613.588,1079.556Zm-1.654-.014a.832.832,0,0,0-.823-.819.837.837,0,0,0-.82.824.828.828,0,0,0,.825.817A.824.824,0,0,0-5615.242,1079.542Z" transform="translate(-113.487 -216.539)"></path>
                                    <path id="Path_7574" data-name="Path 7574" d="M-5711.882,1077.075a2.482,2.482,0,0,1,2.463,2.511,2.486,2.486,0,0,1-2.49,2.434,2.48,2.48,0,0,1-2.46-2.512A2.478,2.478,0,0,1-5711.882,1077.075Zm.81,2.48a.836.836,0,0,0-.813-.831.828.828,0,0,0-.83.812.825.825,0,0,0,.811.83A.834.834,0,0,0-5711.072,1079.555Z" transform="translate(-31.056 -216.54)"></path>
                                    <path id="Path_7575" data-name="Path 7575" d="M-5566.006,1089.018c1.184,0,2.368,0,3.551,0,.625,0,.968.288.979.8.011.535-.342.842-1,.844q-3.526.006-7.051,0c-.657,0-1.011-.3-1-.836s.355-.811,1.023-.812Q-5567.756,1089.015-5566.006,1089.018Z" transform="translate(-154.783 -226.846)"></path>
                                    <path id="Path_7576" data-name="Path 7576" d="M-5487.766,1089c.327,0,.654-.012.98,0a.79.79,0,0,1,.815.814.774.774,0,0,1-.755.819c-.721.027-1.444.026-2.166,0a.775.775,0,0,1-.764-.812.789.789,0,0,1,.807-.822C-5488.489,1088.988-5488.127,1089-5487.766,1089Z" transform="translate(-224.428 -226.828)"></path>
                                </g>
                            </svg>