<svg xmlns="http://www.w3.org/2000/svg" width="50" height="50" viewBox="0 0 50 50">
                                <g id="Group_5519" data-name="Group 5519" transform="translate(3182.783 -2042.641)">
                                    <path id="Path_7550" data-name="Path 7550" d="M-3171.749,2092.641c-.132-.055-.262-.115-.4-.165a2.64,2.64,0,0,1-1.764-2.455q-.022-.9,0-1.806a.441.441,0,0,0-.328-.5,3.624,3.624,0,0,1-2.393-3.56q0-10.2,0-20.408a1.718,1.718,0,0,1,.015-.389.693.693,0,0,1,.72-.6.69.69,0,0,1,.713.609,2.355,2.355,0,0,1,.015.487q0,6.518,0,13.036v.635h.559c1.416,0,2.832,0,4.247,0a1.53,1.53,0,0,1,1.555,1.023c.455,1.1.938,2.178,1.4,3.271.359.851-.047,1.449-.982,1.45q-3.1.005-6.2,0h-.625a11.385,11.385,0,0,0,.175,1.717,2.115,2.115,0,0,0,1.914,1.5c.195.013.391.007.586.007,9.781,0,19.561-.029,29.341.025,1.923.011,3.086-1.059,2.743-3.248h-.512q-3.1,0-6.2,0c-.963,0-1.358-.594-.985-1.48.461-1.093.939-2.178,1.4-3.272a1.508,1.508,0,0,1,1.525-.992c1.416,0,2.832,0,4.247,0h.576v-.57q0-13.133,0-26.267a2.227,2.227,0,0,0-2.471-2.477h-29.83a2.227,2.227,0,0,0-2.462,2.485q0,4.492,0,8.983a3.2,3.2,0,0,1-.008.439.714.714,0,0,1-.713.672.713.713,0,0,1-.735-.7c-.023-.389-.008-.781-.008-1.171,0-1.594,0-3.187,0-4.816h-1.758v.519q0,4.052,0,8.1c0,1.16-.536,1.69-1.7,1.692-.293,0-.588-.021-.878,0a1.632,1.632,0,0,1-1.812-1.078v-9.668a1.685,1.685,0,0,1,1.811-1.085c1.284.04,2.57.01,3.855.01h.489c0-.82-.017-1.568,0-2.315a3.651,3.651,0,0,1,3.537-3.538c.873-.022,1.747,0,2.655,0,0-.439,0-.812,0-1.185a2.7,2.7,0,0,1,2.92-2.92q9.737,0,19.474,0a2.7,2.7,0,0,1,2.9,2.888c0,.387,0,.773,0,1.213h.524c.683,0,1.367-.009,2.05,0a3.656,3.656,0,0,1,3.619,3.607c.014.741,0,1.483,0,2.249h.6c1.35,0,2.7-.008,4.051,0a1.4,1.4,0,0,1,1.5,1.452q.015,4.466,0,8.932a1.4,1.4,0,0,1-1.424,1.426c-.423.013-.846,0-1.269,0a1.476,1.476,0,0,1-1.7-1.7q0-4.052,0-8.1v-.512h-1.758v.669q0,14.667,0,29.334a3.63,3.63,0,0,1-2.394,3.607.442.442,0,0,0-.327.5c.013.618.026,1.238-.006,1.854a2.587,2.587,0,0,1-1.714,2.388c-.146.062-.294.122-.441.183h-5.957a2.917,2.917,0,0,1-2.17-3.352c.034-.431,0-.866,0-1.3h-11.689c0,.718.015,1.4,0,2.08a2.515,2.515,0,0,1-1.2,2.118,7.258,7.258,0,0,1-.957.453Zm2.8-45.914h22.351c0-.336,0-.657,0-.978,0-1.248-.392-1.642-1.624-1.642h-19.126c-.146,0-.293-.005-.439,0a1.173,1.173,0,0,0-1.154,1.106C-3168.981,2045.7-3168.951,2046.188-3168.951,2046.727Zm-3.494,41.252c0,.687-.016,1.35,0,2.012a1.165,1.165,0,0,0,1.186,1.177q2.49.027,4.98,0a1.132,1.132,0,0,0,1.153-.995c.047-.723.011-1.452.011-2.194Zm29.313.006h-7.333c0,.728-.027,1.427.008,2.122a1.137,1.137,0,0,0,1.144,1.059q2.514.029,5.029,0a1.136,1.136,0,0,0,1.144-1.059C-3143.1,2089.411-3143.133,2088.712-3143.133,2087.984Zm-32.019-6.2h6.136c-.351-.821-.7-1.6-1.017-2.4a.545.545,0,0,0-.6-.411c-1.364.023-2.729.009-4.094.011-.139,0-.279.019-.424.03Zm34.723-2.8c-1.6,0-3.167,0-4.738.009a.39.39,0,0,0-.278.2c-.374.841-.73,1.69-1.107,2.573h6.122Zm-40.868-16.068h1.405v-8.828h-1.405Zm45.615-8.831v8.824h1.4v-8.824Z" transform="translate(0 0)"></path>
                                    <path id="Path_7551" data-name="Path 7551" d="M-3097.455,2139.093h-13.771a1.748,1.748,0,0,1-1.927-2q0-8.047,0-16.094a1.749,1.749,0,0,1,1.927-2h27.543a1.75,1.75,0,0,1,1.927,2q0,8.047,0,16.094a1.748,1.748,0,0,1-1.927,2Zm0-18.595q-6.837,0-13.674-.008c-.427,0-.592.1-.591.583q.022,7.972,0,15.944c0,.478.158.585.588.585q13.674-.016,27.349,0c.479,0,.591-.165.59-.633q-.02-7.922,0-15.844c0-.521-.165-.64-.637-.638C-3088.369,2120.5-3092.911,2120.5-3097.454,2120.5Z" transform="translate(-60.33 -66.548)"></path>
                                    <path id="Path_7552" data-name="Path 7552" d="M-3058.837,2293.342c.493,1.125.952,2.173,1.413,3.22.255.579.524,1.151.764,1.736a.469.469,0,0,0,.508.35c3.333-.012,6.666,0,10-.016a.556.556,0,0,0,.432-.2c.757-1.662,1.489-3.336,2.263-5.089h-2.442a4.334,4.334,0,0,1-.549-.008.7.7,0,0,1-.677-.732.67.67,0,0,1,.664-.739c1.149-.028,2.3-.062,3.447.017a1.3,1.3,0,0,1,1.023,1.845c-.257.649-.561,1.28-.842,1.919-.517,1.172-1.038,2.342-1.546,3.518a1.5,1.5,0,0,1-1.519.984q-5.249-.018-10.5,0a1.5,1.5,0,0,1-1.519-.984c-.764-1.754-1.546-3.5-2.312-5.252a1.367,1.367,0,0,1,1.344-2.065q4.4-.008,8.8,0c.6,0,.929.265.942.73.013.489-.325.767-.949.768q-4.049,0-8.1,0Z" transform="translate(-106.635 -216.832)"></path>
                                    <path id="Path_7553" data-name="Path 7553" d="M-3047.647,2098.019h-7.648a2.091,2.091,0,0,1-.448-.016.7.7,0,0,1-.618-.732.7.7,0,0,1,.616-.734,2.074,2.074,0,0,1,.448-.016h15.3a2.125,2.125,0,0,1,.448.016.7.7,0,0,1,.618.732.7.7,0,0,1-.616.734,2.057,2.057,0,0,1-.448.017Z" transform="translate(-110.137 -46.679)"></path>
                                    <path id="Path_7554" data-name="Path 7554" d="M-3018.373,2317.363c1.081,0,2.163,0,3.244,0,.585,0,.916.282.914.753s-.331.743-.92.744q-3.294,0-6.587,0c-.586,0-.915-.278-.913-.75s.331-.744.92-.747C-3020.6,2317.36-3019.488,2317.363-3018.373,2317.363Z" transform="translate(-139.359 -238.908)"></path>
                                    <path id="Path_7555" data-name="Path 7555" d="M-3087.274,2096.57a.738.738,0,0,1,.757.7.741.741,0,0,1-.71.794.74.74,0,0,1-.759-.7A.741.741,0,0,1-3087.274,2096.57Z" transform="translate(-82.441 -46.726)"></path>
                                    <path id="Path_7556" data-name="Path 7556" d="M-2903.791,2097.294a.744.744,0,0,1-.739.77.739.739,0,0,1-.734-.723.739.739,0,0,1,.737-.769A.742.742,0,0,1-2903.791,2097.294Z" transform="translate(-241.35 -46.728)"></path>
                                </g>
                            </svg>