<svg xmlns="http://www.w3.org/2000/svg" width="50" height="50.003" viewBox="0 0 50 50.003">
                                <g id="Group_5528" data-name="Group 5528" transform="translate(7460.262 189.913)">
                                    <path id="Path_7601" data-name="Path 7601" d="M-7410.261-113.853a2.143,2.143,0,0,1-2.265,1.284c-6.558-.031-13.115-.016-19.674-.016-1.415,0-2.06-.641-2.061-2.049q0-2.634,0-5.269a1.751,1.751,0,0,1,1.962-1.952c.794,0,1.587,0,2.411,0v-6.566c-.208-.009-.412-.026-.615-.026l-25.093,0c-.195,0-.391,0-.585-.012a1.369,1.369,0,0,1-1.339-1.4c-.014-.5,0-1,0-1.5a2.992,2.992,0,0,1-2.681-2.449,3.47,3.47,0,0,1-.052-.727q0-7.61,0-15.221a2.408,2.408,0,0,1,.009-.39.691.691,0,0,1,.73-.646.69.69,0,0,1,.716.661,3.682,3.682,0,0,1,.009.487v14.977c0,1.271.541,1.824,1.8,1.824q13.3,0,26.606,0c.158,0,.317-.016.536-.027,0-.559-.018-1.091,0-1.622a.722.722,0,0,1,.946-.744.7.7,0,0,1,.508.744c.005.5.01,1.008.019,1.511,0,.028.03.056.055.1,1.191,0,2.393.039,3.59-.016a1.387,1.387,0,0,0,1.182-1.308c.014-.145.007-.292.007-.439q0-10.83,0-21.66c0-1.263-.547-1.812-1.811-1.813h-31.633c-1.259,0-1.806.553-1.807,1.816,0,.976,0,1.951,0,2.927,0,.572-.278.892-.741.887s-.72-.326-.722-.906c0-1.073-.01-2.147,0-3.22a2.933,2.933,0,0,1,2.742-2.949c.194-.017.39-.018.585-.019q15.768,0,31.536-.005a3.214,3.214,0,0,1,2.449.88,3.056,3.056,0,0,1,.869,2.255q-.009,8.025,0,16.05v5.659a3.04,3.04,0,0,1-2.734,3.387c0,.454.005.922,0,1.389a1.391,1.391,0,0,1-1.479,1.509c-.65.021-1.3.014-1.952.022-.028,0-.056.026-.117.056v6.484h12.24v-1.829c0-.293,0-.585,0-.878,0-.691.259-1.05.744-1.041s.72.362.721,1.066q0,1.1,0,2.2v.523c.741,0,1.438.042,2.13-.01a2.043,2.043,0,0,1,2.264,1.278Zm-12-.2c3.318,0,6.637-.007,9.954.009.443,0,.6-.119.592-.578q-.034-2.584,0-5.169c.006-.464-.126-.615-.6-.614q-9.93.021-19.86.01c-.607,0-.615.008-.615.642q0,2.536,0,5.071c0,.615.016.629.628.629Zm-33.78-15.894h26.157v-1.4h-26.157Zm29.743-1.433h-.924c-1.257,0-1.257,0-1.161,1.261a.955.955,0,0,0,.051.169h2.035Z" transform="translate(0 -27.341)"></path>
                                    <path id="Path_7602" data-name="Path 7602" d="M-7008.108-189.913a1.077,1.077,0,0,1,.5,1.037q-.015,16.707-.008,33.414a2.145,2.145,0,0,1-.012.393.7.7,0,0,1-.751.633.693.693,0,0,1-.7-.634,2.286,2.286,0,0,1-.011-.393q0-16.707-.008-33.414a1.071,1.071,0,0,1,.5-1.036Z" transform="translate(-407.075)"></path>
                                    <path id="Path_7603" data-name="Path 7603" d="M-7413.417-125.487q4.774,0,9.548,0a2.8,2.8,0,0,1,3.124,3.134c0,5.183-.037,10.367.02,15.55a2.991,2.991,0,0,1-3.627,3.2.734.734,0,0,1-.707-.74.72.72,0,0,1,.762-.727c.262-.012.525.007.787-.009a1.287,1.287,0,0,0,1.276-1.245c.012-.13.013-.262.013-.393q0-7.824,0-15.648a4.172,4.172,0,0,0-.017-.442,1.242,1.242,0,0,0-1.218-1.184c-.441-.028-.886-.015-1.328-.015h-18.161c-1.34,0-1.753.417-1.753,1.769q0,7.726,0,15.451c0,1.263.451,1.712,1.72,1.712h15.011c.164,0,.329-.009.492.007a.685.685,0,0,1,.676.657.692.692,0,0,1-.587.786,2.041,2.041,0,0,1-.489.025q-7.628,0-15.257,0a2.813,2.813,0,0,1-3.041-3.035q0-7.923,0-15.845a2.789,2.789,0,0,1,3.013-3Q-7418.289-125.494-7413.417-125.487Z" transform="translate(-30.722 -58.071)"></path>
                                    <path id="Path_7604" data-name="Path 7604" d="M-7152.022,29.976c-.443,0-.886.013-1.328,0a1.325,1.325,0,0,1-1.374-1.366c-.018-.573-.019-1.148,0-1.721a1.3,1.3,0,0,1,1.388-1.336q1.328-.013,2.656,0a1.275,1.275,0,0,1,1.361,1.351c.012.574.013,1.148,0,1.721a1.3,1.3,0,0,1-1.328,1.348C-7151.1,29.992-7151.562,29.976-7152.022,29.976Zm1.217-2.91h-2.417v1.4h2.417Z" transform="translate(-275.666 -194.397)"></path>
                                    <path id="Path_7605" data-name="Path 7605" d="M-7151.953-106.052a2.408,2.408,0,0,1,2.446-2.419,2.442,2.442,0,0,1,2.468,2.413,2.45,2.45,0,0,1-2.437,2.4A2.417,2.417,0,0,1-7151.953-106.052Zm2.459-.937a.932.932,0,0,0-.979.888.935.935,0,0,0,.961.959.96.96,0,0,0,.991-.941A.953.953,0,0,0-7149.494-106.989Z" transform="translate(-278.175 -73.482)"></path>
                                    <path id="Path_7606" data-name="Path 7606" d="M-7149.482-34.245a2.41,2.41,0,0,1-2.472-2.393,2.437,2.437,0,0,1,2.452-2.425,2.467,2.467,0,0,1,2.462,2.43A2.435,2.435,0,0,1-7149.482-34.245Zm-.025-1.478a.961.961,0,0,0,.986-.947.99.99,0,0,0-.981-.914.953.953,0,0,0-.972.958A.93.93,0,0,0-7149.507-35.723Z" transform="translate(-278.174 -136.106)"></path>
                                    <path id="Path_7607" data-name="Path 7607" d="M-7038.824,255.017c-.458,0-.918.016-1.376,0a1.264,1.264,0,0,1-1.325-1.288c-.03-.6-.028-1.213,0-1.818a1.241,1.241,0,0,1,1.263-1.3c.949-.037,1.9-.036,2.85,0a1.244,1.244,0,0,1,1.277,1.284c.029.6.028,1.213,0,1.818a1.264,1.264,0,0,1-1.312,1.3C-7037.905,255.034-7038.365,255.017-7038.824,255.017Zm1.178-1.5v-1.444c-.745,0-1.445-.01-2.145.012a.369.369,0,0,0-.255.253c-.03.384-.013.771-.013,1.178Z" transform="translate(-377.828 -397.463)"></path>
                                    <path id="Path_7608" data-name="Path 7608" d="M-7161.618,266.188c1.1,0,2.194,0,3.291,0,.567,0,.909.285.908.737s-.341.736-.909.737q-3.29,0-6.581,0c-.565,0-.892-.3-.878-.762.013-.441.334-.709.878-.711C-7163.812,266.184-7162.715,266.188-7161.618,266.188Z" transform="translate(-265.714 -411.527)"></path>
                                </g>
                            </svg>