<svg xmlns="http://www.w3.org/2000/svg" width="50.008" height="50" viewBox="0 0 50.008 50">
                                <g id="Group_5535" data-name="Group 5535" transform="translate(5868.695 1292.49)">
                                    <path id="Path_7662" data-name="Path 7662" d="M-5868.7-1265.34a6.448,6.448,0,0,1,2.108-3.245q11.27-11.235,22.51-22.5a4.161,4.161,0,0,1,5.65-.537,6.611,6.611,0,0,1,.649.59c4.708,4.7,9.4,9.425,14.125,14.11a4.322,4.322,0,0,1,1.174,5.13c-.017.041,0,.094.063.02a14.21,14.21,0,0,1,2.108,1.034,3.755,3.755,0,0,1,1.611,3.188q.021,10.469,0,20.939a4.126,4.126,0,0,1-3.332,4.03,2.819,2.819,0,0,0-.275.089h-34.477a.3.3,0,0,0-.081-.052,4.206,4.206,0,0,1-3.516-4.567c0-2.388.009-4.776-.013-7.164a1.129,1.129,0,0,0-.3-.71c-2-2.023-4-4.045-6.033-6.03a5.983,5.983,0,0,1-1.976-3.156Zm29.151,21.187h16.4a2.538,2.538,0,0,0,2.788-2.783q0-10.128,0-20.257a2.543,2.543,0,0,0-2.821-2.8q-16.355,0-32.71,0a2.545,2.545,0,0,0-2.815,2.809q0,10.1,0,20.208a2.552,2.552,0,0,0,2.848,2.822Zm5.076-41.194.09.123-13.57,13.549a.273.273,0,0,0,.1.01q11.469,0,22.938-.01a.869.869,0,0,0,.568-.276,2.506,2.506,0,0,0-.221-3.509q-4.824-4.837-9.659-9.664C-5834.3-1285.2-5834.389-1285.273-5834.469-1285.347Zm-4.661-4.656a2.549,2.549,0,0,0-3.763.089q-11.617,11.615-23.23,23.234a3.928,3.928,0,0,0-.447.515,2.39,2.39,0,0,0,.318,3.169c.485-.5.968-1,1.461-1.5,1.551-1.556,3.113-3.1,4.656-4.665.555-.562,1.058-1.177,1.608-1.744.269-.277.616-.478.889-.751q9.016-9,18.026-18.013A3.276,3.276,0,0,1-5839.13-1290Zm3.367,3.528-2.215-2.219-17.04,17.031c1.254,0,2.6-.014,3.952.009a1.128,1.128,0,0,0,.89-.378q7.063-7.086,14.141-14.157C-5835.921-1286.3-5835.812-1286.423-5835.763-1286.475Zm-24.608,20.1-4.6,4.578,2.282,2.265c.692-.693,1.43-1.426,2.159-2.169a.539.539,0,0,0,.153-.337C-5860.367-1263.5-5860.371-1264.956-5860.371-1266.372Zm-.034,9.2v-2.22l-1.105,1.107Z" transform="translate(0 0)"></path>
                                    <path id="Path_7663" data-name="Path 7663" d="M-5775.1-1094.085c-.826,0-1.651.008-2.477,0a1.653,1.653,0,0,1-1.762-1.726c-.024-1.105-.027-2.212,0-3.318a1.663,1.663,0,0,1,1.784-1.709q2.451-.011,4.9,0a1.682,1.682,0,0,1,1.769,1.732c.019,1.106.021,2.212,0,3.318a1.676,1.676,0,0,1-1.741,1.7h-2.477Zm2.494-1.715v-3.313h-5.01v3.313Z" transform="translate(-77.723 -166.703)"></path>
                                    <path id="Path_7664" data-name="Path 7664" d="M-5674.465-996.922c-.528,0-1.058.014-1.586,0a.858.858,0,0,1-.937-.87.842.842,0,0,1,.933-.815c1.073-.013,2.147-.015,3.222,0a.816.816,0,0,1,.905.834.834.834,0,0,1-.9.848C-5673.374-996.906-5673.92-996.923-5674.465-996.922Z" transform="translate(-166.743 -255.557)"></path>
                                    <path id="Path_7665" data-name="Path 7665" d="M-5725.521-996.922c-.528,0-1.058.014-1.585,0a.836.836,0,0,1-.916-.833c-.008-.516.333-.844.938-.851q1.585-.02,3.171,0a.847.847,0,0,1,.95.849c-.008.495-.376.822-.972.837C-5724.463-996.911-5724.992-996.922-5725.521-996.922Z" transform="translate(-122.355 -255.557)"></path>
                                    <path id="Path_7666" data-name="Path 7666" d="M-5725.48-973.007c.543,0,1.086-.01,1.628,0a.835.835,0,0,1,.889.8.846.846,0,0,1-.874.877q-1.653.032-3.307,0a.824.824,0,0,1-.878-.863.815.815,0,0,1,.913-.817C-5726.566-973.017-5726.023-973.008-5725.48-973.007Z" transform="translate(-122.355 -277.931)"></path>
                                    <path id="Path_7667" data-name="Path 7667" d="M-5776.63-971.325c-.528,0-1.058.01-1.585,0a.862.862,0,0,1-.958-.847c0-.505.357-.833.953-.838q1.586-.013,3.172,0a.849.849,0,0,1,.939.808.874.874,0,0,1-.934.879c-.033,0-.066,0-.1,0Z" transform="translate(-77.864 -277.923)"></path>
                                    <path id="Path_7668" data-name="Path 7668" d="M-5776.593-998.6c.512,0,1.024-.009,1.536,0,.59.015.961.352.957.845a.866.866,0,0,1-.967.842c-1.057.013-2.114.015-3.171,0a.842.842,0,0,1-.924-.876c.016-.482.364-.785.935-.811.033,0,.066,0,.1,0Z" transform="translate(-77.873 -255.571)"></path>
                                    <path id="Path_7669" data-name="Path 7669" d="M-5777.551-1035.24a8.306,8.306,0,0,1-.008.987.78.78,0,0,1-.816.7.764.764,0,0,1-.812-.705,15.291,15.291,0,0,1,.006-1.973.75.75,0,0,1,.784-.685.82.82,0,0,1,.842.687.753.753,0,0,1,.022.147c0,.28,0,.56,0,.84Z" transform="translate(-77.814 -222.272)"></path>
                                    <path id="Path_7670" data-name="Path 7670" d="M-5677.027-1035.289c0-.28-.016-.562,0-.841a.848.848,0,0,1,.836-.814.833.833,0,0,1,.835.812c.022.593.024,1.188,0,1.781a.8.8,0,0,1-.806.777.828.828,0,0,1-.866-.774.955.955,0,0,1,0-.1q0-.421,0-.841Z" transform="translate(-166.675 -222.248)"></path>
                                    <path id="Path_7671" data-name="Path 7671" d="M-5728.06-1035.227c0-.3-.015-.594,0-.89a.829.829,0,0,1,.783-.807.782.782,0,0,1,.853.667,12.033,12.033,0,0,1-.012,2.068.729.729,0,0,1-.87.625.787.787,0,0,1-.752-.772C-5728.076-1034.632-5728.06-1034.93-5728.06-1035.227Z" transform="translate(-122.295 -222.264)"></path>
                                    <path id="Path_7672" data-name="Path 7672" d="M-5702.538-1035.258c0-.28-.013-.562,0-.841a.841.841,0,0,1,.815-.83.831.831,0,0,1,.855.791,16.941,16.941,0,0,1,0,1.83.8.8,0,0,1-.886.744.806.806,0,0,1-.78-.8C-5702.552-1034.664-5702.538-1034.961-5702.538-1035.258Z" transform="translate(-144.491 -222.26)"></path>
                                    <path id="Path_7673" data-name="Path 7673" d="M-5624.22-1035.211c0,.3.018.595,0,.89a.781.781,0,0,1-.763.76.734.734,0,0,1-.861-.64,12.076,12.076,0,0,1,0-2.067.773.773,0,0,1,.86-.652.838.838,0,0,1,.77.77.834.834,0,0,1,.006.1c0,.28,0,.561,0,.841Z" transform="translate(-211.147 -222.266)"></path>
                                    <path id="Path_7674" data-name="Path 7674" d="M-5751.987-1035.234a8.568,8.568,0,0,1-.006.889.815.815,0,0,1-.854.784.8.8,0,0,1-.812-.819c-.021-.576-.021-1.154,0-1.73a.82.82,0,0,1,.821-.818.829.829,0,0,1,.836.756,8,8,0,0,1,.007.938Z" transform="translate(-100.026 -222.262)"></path>
                                    <path id="Path_7675" data-name="Path 7675" d="M-5549.141-1035.248c0-.3-.02-.595.005-.889a.8.8,0,0,1,.782-.748c.423,0,.792.195.829.623a11.846,11.846,0,0,1,0,2.114c-.042.447-.417.649-.873.619a.8.8,0,0,1-.75-.778c0-.033,0-.066,0-.1q0-.42,0-.841Z" transform="translate(-277.989 -222.299)"></path>
                                    <path id="Path_7676" data-name="Path 7676" d="M-5598.692-1035.2a9.243,9.243,0,0,1-.006.938.777.777,0,0,1-.8.723.742.742,0,0,1-.83-.682,13.228,13.228,0,0,1,0-1.972.761.761,0,0,1,.816-.707.8.8,0,0,1,.821.761c.028.31.005.625.005.938Z" transform="translate(-233.348 -222.285)"></path>
                                    <path id="Path_7677" data-name="Path 7677" d="M-5574.686-1035.249a8.7,8.7,0,0,1,.006-.938.79.79,0,0,1,.81-.714.74.74,0,0,1,.8.658,13.719,13.719,0,0,1,0,2.068.741.741,0,0,1-.864.633.756.756,0,0,1-.75-.719,9.642,9.642,0,0,1-.006-.987Z" transform="translate(-255.667 -222.285)"></path>
                                </g>
                            </svg>