<svg xmlns="http://www.w3.org/2000/svg" width="38.961" height="50" viewBox="0 0 38.961 50">
                                <g id="Group_5521" data-name="Group 5521" transform="translate(4433.934 -1217.926)">
                                    <path id="Path_7560" data-name="Path 7560" d="M-4424.3,1217.926a15.268,15.268,0,0,1,5.378,3.232,74.147,74.147,0,0,1,9.284,9.5c.042.05.085.1.123.151a.718.718,0,0,1-.075,1.045.708.708,0,0,1-1.038-.117c-.479-.53-.936-1.08-1.4-1.622a60.765,60.765,0,0,0-8.081-8.02,35.3,35.3,0,0,0-3.642-2.408,3.659,3.659,0,0,0-1.154-.254,3.63,3.63,0,0,0,.023,1.22,33.543,33.543,0,0,0,1.709,3.962,61.113,61.113,0,0,0,6.457,9.31,67.776,67.776,0,0,0,9.763,10.042,33.608,33.608,0,0,0,3.591,2.4,4.014,4.014,0,0,0,1.245.283,5.824,5.824,0,0,0-.028-1.271,15.988,15.988,0,0,0-2.188-4.754c-1.318-2.082-2.752-4.092-4.137-6.132-.1-.148-.219-.283-.312-.434a.735.735,0,0,1,.137-1.042.71.71,0,0,1,1.029.186c.556.719,1.1,1.449,1.625,2.191a43.522,43.522,0,0,1,4.539,7.59,15.472,15.472,0,0,1,.863,2.775,2.1,2.1,0,0,1-.844,2.279c-.583.438-1.131.92-1.7,1.383a4.392,4.392,0,0,0,4.438-1.159,3.39,3.39,0,0,0,.675-2.188q0-7.333.006-14.667a.587.587,0,0,0-.332-.562,3.966,3.966,0,0,1-.948-.883c-.58-.76-1.109-1.56-1.693-2.393l-1.5,1.047c.186.276.364.524.524.783a1.221,1.221,0,0,1-.1,1.532,6.535,6.535,0,0,1-2.667,1.636,2.887,2.887,0,0,1-3.183-1.525,2.866,2.866,0,0,1,.583-3.437,14.614,14.614,0,0,1,1.769-1.287,1.217,1.217,0,0,1,1.686.34c.179.229.34.471.548.759l1.5-1.045c-.44-.643-.89-1.237-1.275-1.87a2.3,2.3,0,0,1,1.7-3.52,1.841,1.841,0,0,1,1.59.45,12.315,12.315,0,0,1,1.4,1.793.634.634,0,0,1-.236.9.662.662,0,0,1-.955-.15c-.266-.326-.493-.684-.742-1.025-.386-.529-.859-.661-1.286-.364a.882.882,0,0,0-.112,1.332q1.822,2.618,3.66,5.226c.369.523.882.65,1.289.349.423-.312.461-.792.092-1.334-.384-.563-.785-1.115-1.167-1.679-.307-.452-.269-.862.082-1.123a.755.755,0,0,1,1.093.263c.447.618.9,1.236,1.307,1.878a2.243,2.243,0,0,1-.869,3.349c-.311.166-.287.385-.287.642q0,7.236,0,14.472a4.783,4.783,0,0,1-1.886,4.073,4.481,4.481,0,0,1-2.769.918c-2.565,0-5.131-.012-7.695-.073a14.981,14.981,0,0,1-6.188-1.717,27.493,27.493,0,0,1-6.869-4.821c-.141-.133-.285-.262-.443-.406-.763.638-1.515,1.256-2.254,1.891a.7.7,0,0,0,.088,1.118q2.58,2.079,5.164,4.151c1.329,1.068,2.651,2.146,3.99,3.2a3.015,3.015,0,0,1,1.16,2.158c.373,3.321.773,6.64,1.168,10.01,1.053,0,2.088,0,3.124,0,.357,0,.717-.02,1.071.016a.675.675,0,0,1,.662.71.69.69,0,0,1-.654.721,2.734,2.734,0,0,1-.437.013h-14.569c-.065,0-.13,0-.195,0-.562-.015-.9-.3-.892-.748.011-.428.343-.707.878-.71,1.12-.007,2.239,0,3.387,0a2.832,2.832,0,0,0,.1-.376c.321-2.741.641-5.481.945-8.223a.584.584,0,0,0-.177-.446q-4.032-3.265-8.09-6.5a.743.743,0,0,0-.532-.061,4.528,4.528,0,0,1-5.4-3.562,5.98,5.98,0,0,1,.018-1.879c.085-.679.471-.976.931-.86s.6.5.482,1.15a3.066,3.066,0,0,0,.867,2.9,3.1,3.1,0,0,0,4.051.24,3.132,3.132,0,0,0,.81-3.986,3.1,3.1,0,0,0-3.87-1.347c-.135.055-.271.109-.407.158a.678.678,0,0,1-.9-.365.7.7,0,0,1,.337-.95,4.147,4.147,0,0,1,2.633-.486,1.268,1.268,0,0,0,1.221-.34c.6-.565,1.257-1.073,1.881-1.6-.6-1.031-1.221-2.021-1.771-3.047a22.661,22.661,0,0,1-2.708-8.223c-.322-2.92-.009-5.738,1.978-8.082a22.814,22.814,0,0,1,2.5-2.3,3.047,3.047,0,0,1,.731-.354Zm-4.053,5.307c-.184.932-.433,1.807-.519,2.7a15.267,15.267,0,0,0,1.023,6.728,26.928,26.928,0,0,0,12.172,14.539,14.884,14.884,0,0,0,7.261,2.253c.646.01,1.3-.092,1.918-.141A77.088,77.088,0,0,1-4428.349,1223.233Zm3.181,25.106-1.418,1.757c.077.067.173.154.272.234,2.53,2.033,5.055,4.073,7.6,6.092a1.29,1.29,0,0,1,.561,1.29c-.231,1.8-.433,3.607-.643,5.412-.127,1.093-.247,2.186-.374,3.307h4.6a1.721,1.721,0,0,0,0-.177c-.375-3.173-.763-6.345-1.114-9.521a1.957,1.957,0,0,0-.789-1.427c-1.937-1.528-3.852-3.083-5.775-4.627Zm-1.226-27.591c-.841.6-.869.672-.562,1.553a27.427,27.427,0,0,0,3.038,5.86,81.7,81.7,0,0,0,14.554,17,22.5,22.5,0,0,0,4.511,3.207.628.628,0,0,0,.472.063,6.178,6.178,0,0,0,.794-.523c-.4-.2-.75-.362-1.09-.548a26.753,26.753,0,0,1-5.249-4.01,81.383,81.383,0,0,1-13.029-15.505A23.841,23.841,0,0,1-4426.393,1220.748Zm21.44,6.905c-.455.326-.892.6-1.29.931a1.442,1.442,0,0,0-.271,1.964,1.443,1.443,0,0,0,1.935.418c.442-.263.853-.579,1.316-.9Zm-20.241,16.719,1.773-1.493-1.5-1.776-1.771,1.489Z"></path>
                                    <path id="Path_7561" data-name="Path 7561" d="M-4411.116,1438.584a2.045,2.045,0,0,1-2.081-1.992,2.036,2.036,0,0,1,2.044-2.076,2.027,2.027,0,0,1,2.053,2.015A2.031,2.031,0,0,1-4411.116,1438.584Zm-.192-1.437.24.013c.153-.2.4-.377.438-.595a.428.428,0,0,0-.5-.521.743.743,0,0,0-.518.462C-4411.676,1436.7-4411.434,1436.932-4411.308,1437.147Z" transform="translate(-18.121 -190.171)"></path>
                                </g>
                            </svg>