<svg xmlns="http://www.w3.org/2000/svg" width="50" height="49.995" viewBox="0 0 50 49.995">
                                <g id="Group_5531" data-name="Group 5531" transform="translate(6709.522 562.194)">
                                    <path id="Path_7632" data-name="Path 7632" d="M-6697.446-513.812h-7.357c-.4,0-.806,0-1.209,0-.829,0-1.09-.258-1.091-1.076q0-3.6,0-7.207v-.538c-1.6-.32-2.444-1.21-2.417-2.525a2.494,2.494,0,0,1,2.417-2.388v-6.4a2.292,2.292,0,0,1-1.957-1.07,3.293,3.293,0,0,1-.426-1.608c.036-1.252,1.058-2.091,2.558-2.206.191-.754.384-1.528.583-2.3s.377-.9,1.152-.9h9.348v-1.613c-.193,0-.373-.008-.552,0a.848.848,0,0,1-.99-.59c-.143-.488.135-.782.532-1.018q3.546-2.115,7.083-4.244c1.338-.8,2.67-1.617,4.02-2.4a.743.743,0,0,0,.434-.745c-.018-2.805-.011-5.611-.01-8.416,0-.892.241-1.132,1.135-1.133q2.948,0,5.9,0c.756,0,1.03.276,1.031,1.034q0,2.192,0,4.384c0,.756-.277,1.03-1.035,1.031-1.779,0-3.56,0-5.416,0a18.74,18.74,0,0,1-.018,2.262,1.824,1.824,0,0,0,1.144,2.022c3.433,1.974,6.808,4.049,10.205,6.086.13.078.312.128.376.243a1.852,1.852,0,0,1,.338.87.7.7,0,0,1-.75.61c-.25.011-.5,0-.781,0v1.615h9.323c.8,0,.984.139,1.185.926.191.747.375,1.5.561,2.242a2.491,2.491,0,0,1,2.6,2.468c.026,1.288-.832,2.161-2.393,2.471v3.988c.482,0,.962-.005,1.441,0,.659.009.956.3.956.956q.005,7.912,0,15.824c0,.687-.307.957-1.057.957h-35.484c-1.188,0-1.337-.144-1.362-1.311C-6697.429-513.592-6697.437-513.673-6697.446-513.812Zm10.463-.023h21.05a5.762,5.762,0,0,1,4.767-4.772v-4.927a5.772,5.772,0,0,1-4.767-4.769h-21.051a5.767,5.767,0,0,1-4.765,4.773v4.927A5.765,5.765,0,0,1-6686.983-513.836Zm12.162-31.1c-.015-.01-.066-.052-.123-.086q-4.618-2.774-9.232-5.552a.609.609,0,0,0-.728.03q-4.548,2.743-9.105,5.47c-.1.059-.188.129-.2.137V-533.2h19.387Zm-18.573,31.116v-.639q0-7.127,0-14.255c0-1.02.206-1.223,1.245-1.223h18.882v-1.576h-22.507v17.693Zm-4.068-1.625v-7.195h-8v7.195Zm-7.995-18.5v6.393h8.03c0-1.547,0-3.056,0-4.565,0-.762.272-1.034,1.021-1.042.192,0,.384,0,.563,0v-.786Zm37.067,3.985h1.618v-2.354h1.619v2.349h1.561v-3.96h-9.613v.767c.158,0,.288,0,.419,0,.953.008,1.166.227,1.167,1.2,0,.665,0,1.33,0,1.985h1.629v-2.347h1.6Zm-27.446-7.229h-11.229a.73.73,0,0,0-.2.018.781.781,0,0,0-.638.8.762.762,0,0,0,.609.766,1.665,1.665,0,0,0,.45.03q5.284,0,10.569,0c.145,0,.289-.018.438-.028Zm22.624,1.6c.139.007.222.014.3.014h10.771c.117,0,.276.036.344-.025a2.048,2.048,0,0,0,.625-.694.646.646,0,0,0-.444-.8,1.6,1.6,0,0,0-.586-.088q-5.285-.008-10.569,0c-.145,0-.29.018-.444.028Zm-24.24,9.691h-9.472a1.335,1.335,0,0,0-.35.022.774.774,0,0,0-.628.752.754.754,0,0,0,.57.793,1.652,1.652,0,0,0,.5.043q4.454,0,8.908,0h.476Zm18.546-31.47v-3.171h-4.775v3.171Zm-26.345,18.534h9.4V-540.4h-9.011Zm41.072-1.543h-9.013v1.558h9.4C-6663.927-539.372-6664.054-539.885-6664.179-540.387Zm-27.587,15.171a3.773,3.773,0,0,0,3.051-3.074h-3.051Zm27.523-3.1a3.78,3.78,0,0,0,3.074,3.056v-3.056Zm-24.448,14.483a3.8,3.8,0,0,0-3.051-3.079v3.079Zm24.461-.008h3.07v-3.07A3.807,3.807,0,0,0-6664.229-513.837Z" transform="translate(0 0)"></path>
                                    <path id="Path_7633" data-name="Path 7633" d="M-6499.868-287.928a4.765,4.765,0,0,1,4.766-4.736,4.762,4.762,0,0,1,4.736,4.765,4.764,4.764,0,0,1-4.765,4.737A4.766,4.766,0,0,1-6499.868-287.928Zm4.768-3.152a3.175,3.175,0,0,0-3.184,3.162,3.178,3.178,0,0,0,3.125,3.172,3.177,3.177,0,0,0,3.209-3.138A3.175,3.175,0,0,0-6495.1-291.08Z" transform="translate(-181.307 -232.998)"></path>
                                    <path id="Path_7634" data-name="Path 7634" d="M-6554.785-262.465v1.523h-4.691v-1.523Z" transform="translate(-129.807 -259.204)"></path>
                                    <path id="Path_7635" data-name="Path 7635" d="M-6403.881-261.169v-1.56h4.7v1.56Z" transform="translate(-264.334 -258.975)"></path>
                                    <path id="Path_7636" data-name="Path 7636" d="M-6565.4-454.38a6.353,6.353,0,0,1,6.313,6.346,6.353,6.353,0,0,1-6.385,6.325,6.356,6.356,0,0,1-6.288-6.372A6.355,6.355,0,0,1-6565.4-454.38Zm4.617,5.52a4.543,4.543,0,0,0-3.833-3.8l-.033.625h-1.546l-.048-.651c-1.9.232-3.814,2.181-3.787,3.832l.61.044v1.54l-.651.045a4.626,4.626,0,0,0,3.825,3.82l.065-.655h1.527c.016.229.03.437.045.645a4.559,4.559,0,0,0,3.813-3.815l-.64-.044v-1.541Z" transform="translate(-119.102 -93.209)"></path>
                                    <path id="Path_7637" data-name="Path 7637" d="M-6665.822-254.19h-1.526v-2.326h1.526Z" transform="translate(-36.597 -264.366)"></path>
                                    <path id="Path_7638" data-name="Path 7638" d="M-6643.349-256.6h1.516v2.332h-1.516Z" transform="translate(-57.259 -264.292)"></path>
                                    <path id="Path_7639" data-name="Path 7639" d="M-6665.869-338.073h-1.519V-340.4h1.519Z" transform="translate(-36.563 -191.902)"></path>
                                    <path id="Path_7640" data-name="Path 7640" d="M-6641.851-340.275v2.3h-1.541v-2.3Z" transform="translate(-57.223 -192.015)"></path>
                                    <path id="Path_7641" data-name="Path 7641" d="M-6525.911-421.014c-1.076,0-2.125.015-3.174-.007a.752.752,0,0,1-.755-.81c-.016-.756,0-1.512,0-2.308h1.566v1.537h2.367Z" transform="translate(-155.446 -119.446)"></path>
                                </g>
                            </svg>