<svg xmlns="http://www.w3.org/2000/svg" width="33.648" height="50" viewBox="0 0 33.648 50">
                                <path id="Path_7509" data-name="Path 7509" d="M-4815.789,3132.017c.253.311.522.612.758.936,1.693,2.329,3.376,4.665,5.075,6.989a2.181,2.181,0,0,0,.64.573c3.071,1.8,6.142,3.6,9.234,5.367a1.372,1.372,0,0,1,.824,1.433c-.058.858-.009,1.724-.016,2.586,0,.523-.3.857-.737.847a.764.764,0,0,1-.722-.826c-.013-.39,0-.781,0-1.172s0-.774,0-1.188h-8.606c0,1.317.041,2.616-.018,3.91a1.181,1.181,0,0,0,.706,1.248c2.925,1.663,5.819,3.38,8.735,5.059a1.123,1.123,0,0,1,.658,1.131c-.037.894-.007,1.79-.011,2.685,0,.615-.27.952-.736.943s-.724-.358-.726-.968c0-.728,0-1.456,0-2.21h-8.555a.948.948,0,0,0-.049.214c0,1.53-.008,3.06,0,4.589a2.228,2.228,0,0,0,.129.615q2.436,7.969,4.877,15.938c.043.14.145.3.113.417-.069.263-.143.611-.335.732s-.536.034-.8-.019c-.122-.024-.219-.185-.323-.287q-4.986-4.922-9.969-9.846a4.726,4.726,0,0,1-.363-.471c-.213.2-.353.325-.487.457l-9.97,9.844c-.082.08-.161.162-.245.239a.7.7,0,0,1-.935.095.7.7,0,0,1-.277-.857c.51-1.662,1.012-3.326,1.52-4.989q.6-1.957,1.206-3.912c.182-.583.538-.812.993-.659.422.142.573.534.4,1.09q-.844,2.774-1.7,5.546c-.046.153-.086.307-.13.461l.1.081,8.122-8.435-4.309-4.448c-.372,1.2-.729,2.362-1.088,3.52a2.661,2.661,0,0,1-.138.416.687.687,0,0,1-.853.391.673.673,0,0,1-.515-.78,1.976,1.976,0,0,1,.09-.378c.193-.638.355-1.287.59-1.908a12.645,12.645,0,0,0,.819-5.444c-.051-.725-.009-1.456-.009-2.211h-8.607c0,.164,0,.334,0,.5,0,.651.015,1.3-.011,1.953a.727.727,0,0,1-.719.721.7.7,0,0,1-.724-.7c-.016-1.09-.043-2.183.023-3.269a1.2,1.2,0,0,1,.586-.744q4.45-2.63,8.934-5.2a.882.882,0,0,0,.531-.9c-.038-1.219-.013-2.441-.013-3.661v-.5h-8.607c0,.672,0,1.347,0,2.022a2.659,2.659,0,0,1-.049.628.661.661,0,0,1-.724.53.648.648,0,0,1-.674-.643c-.022-1.122-.043-2.247.02-3.367.014-.247.328-.551.58-.7q4.536-2.677,9.1-5.306a3.728,3.728,0,0,0,1.212-1.089c1.645-2.3,3.313-4.59,4.978-6.879.188-.258.407-.494.611-.74Zm-4.245,9.576,3.964,4.147,3.984-4.146c-1.363,0-2.811.011-4.257-.011a.989.989,0,0,1-.689-.248.982.982,0,0,1-.13-.748c.084-.361.422-.458.774-.458h4.748l-4.442-6.131-4.442,6.135c.441,0,.767-.019,1.089,0a.723.723,0,0,1,.714.769.724.724,0,0,1-.746.684C-4819.7,3141.6-4819.938,3141.593-4820.034,3141.593Zm5.322,28.577,8.1,8.423.079-.066c-1.3-4.241-2.6-8.483-3.919-12.8Zm-1.357-10.589-4.016,4.136h7.987Zm-1.248-12.744-4-4.135v8.267Zm2.542-.123,3.929,4.079v-8.159Zm-6.563,15.938,3.957-4.081-3.957-4.117Zm10.49-.035v-8.243l-4,4.115Zm-1.347-10.7-3.887-4.049-3.958,4.049Zm-3.873,5.6,3.943-4.088h-7.858Zm-.029,11.7,3.875-3.971h-7.7Zm6.779-15.2v3.815h6.555Zm-13.526,3.827v-3.825l-6.431,3.748.044.078Zm19.93-11.793.02-.093-6.417-3.732v3.825Zm-19.932-3.827-6.437,3.75.044.073h6.392Z" transform="translate(4832.9 -3132.018)"></path>
                            </svg>