<svg xmlns="http://www.w3.org/2000/svg" width="50" height="50" viewBox="0 0 50 50">
                                <g id="Group_5530" data-name="Group 5530" transform="translate(5199.844 -24.07)">
                                    <path id="Path_7612" data-name="Path 7612" d="M-5152.777,46.333q-7.421,0-14.842,0a2.673,2.673,0,0,0-2.927,2.947q0,9.5,0,18.993v3.844h-26.006c-1.019,0-1.336-.321-1.336-1.351q0-21.7,0-43.4c0-1.021.32-1.338,1.349-1.338h27.264v.583c0,1.709,0,3.418,0,5.127a2.969,2.969,0,0,0,3.166,3.182c1.726.006,3.451,0,5.175,0h.544v1.627c0,2.083-.005,4.166,0,6.249,0,.79.509,1.243,1.195,1.1.485-.1.753-.5.753-1.155,0-2.8-.008-5.6.01-8.4a1.8,1.8,0,0,0-.58-1.381c-2.76-2.741-5.5-5.5-8.261-8.242a8.316,8.316,0,0,0-.835-.648h-29.3a3.169,3.169,0,0,0-2.145,1.678c-.112.248-.2.508-.3.763V71.628c.753,1.839,1.538,2.441,3.2,2.441q21.947,0,43.893,0a2.67,2.67,0,0,0,2.9-2.923q0-10.937,0-21.873A2.672,2.672,0,0,0-5152.777,46.333Zm-14.546-18.846,5.438,5.437a3.44,3.44,0,0,1-.36.038c-1.286,0-2.57.006-3.856,0-.852,0-1.216-.37-1.22-1.226C-5167.328,30.342-5167.324,28.948-5167.324,27.487Zm15.527,43.588c0,.841-.2,1.042-1.027,1.042h-14.743c-.829,0-1.025-.2-1.025-1.044q0-5.443,0-10.886,0-5.419,0-10.837c0-.878.183-1.064,1.052-1.064h14.694c.867,0,1.05.187,1.05,1.065Q-5151.8,60.213-5151.8,71.074Z" transform="translate(0 0)"></path>
                                    <path id="Path_7613" data-name="Path 7613" d="M-5096.181,129.962a9.473,9.473,0,0,1,.44-1,.674.674,0,0,1,.465-.31q1.666-.04,3.33,0a.665.665,0,0,1,.46.314c.231.418.379.882.612,1.3a.888.888,0,0,0,1.113.412.976.976,0,0,0,.69-1,4.775,4.775,0,0,0-.169-.548q-1.682-3.976-3.371-7.949a1.055,1.055,0,0,0-.98-.78,1.056,1.056,0,0,0-1.024.788c-.431,1.039-.88,2.07-1.319,3.106-.691,1.629-1.388,3.257-2.07,4.89a1.026,1.026,0,0,0,.449,1.474C-5097,130.892-5096.477,130.632-5096.181,129.962Zm2.569-6.035c.4.949.762,1.79,1.142,2.684h-2.279C-5094.372,125.721-5094.016,124.882-5093.611,123.927Z" transform="translate(-89.32 -84.605)"></path>
                                    <path id="Path_7614" data-name="Path 7614" d="M-5135.772,284.359h-19.505a3.429,3.429,0,0,0-.5.017,1.006,1.006,0,0,0-.89.977,1,1,0,0,0,.889.978,3.412,3.412,0,0,0,.5.017h9.653q4.926,0,9.852,0c.807,0,1.288-.375,1.288-.994S-5134.965,284.364-5135.772,284.359Z" transform="translate(-37.796 -228.478)"></path>
                                    <path id="Path_7615" data-name="Path 7615" d="M-5154.976,375.758a3.4,3.4,0,0,0,.5.017h9.6q4.9,0,9.8,0c.807,0,1.288-.375,1.287-.995s-.48-.99-1.287-.995h-19.406a3.405,3.405,0,0,0-.5.017,1,1,0,0,0-.889.978A1,1,0,0,0-5154.976,375.758Z" transform="translate(-38.496 -307.081)"></path>
                                    <path id="Path_7616" data-name="Path 7616" d="M-5012.115,130.1a.889.889,0,0,0,1.128-.227.96.96,0,0,0,.087-1.237c-.429-.709-.883-1.4-1.324-2.1-.317-.5-.882-1.016-.875-1.518.007-.527.556-1.051.88-1.57.429-.689.884-1.363,1.3-2.061a.993.993,0,0,0-.625-1.582,1.066,1.066,0,0,0-1.1.6c-.564.891-1.132,1.78-1.729,2.719-.131-.2-.232-.349-.328-.5-.5-.783-.979-1.578-1.5-2.347a.986.986,0,0,0-1.39-.332,1.017,1.017,0,0,0-.292,1.369c.06.118.136.227.207.339.613.966,1.213,1.939,1.846,2.891a.675.675,0,0,1,.014.881c-.63.934-1.217,1.9-1.819,2.85-.53.839-.507,1.415.068,1.78q.825.523,1.6-.691l1.593-2.506c.594.935,1.145,1.82,1.719,2.691A1.6,1.6,0,0,0-5012.115,130.1Z" transform="translate(-159.649 -84.059)"></path>
                                    <path id="Path_7617" data-name="Path 7617" d="M-5104.322,239.647h-15.026a3.412,3.412,0,0,0-.5.017,1.006,1.006,0,0,0-.89.978,1.006,1.006,0,0,0,.891.977,3.427,3.427,0,0,0,.5.017h7.463q3.781,0,7.563,0c.807,0,1.287-.375,1.286-1S-5103.515,239.652-5104.322,239.647Z" transform="translate(-69.531 -189.231)"></path>
                                    <path id="Path_7618" data-name="Path 7618" d="M-5119.354,331.064q3.732,0,7.463,0,3.757,0,7.514,0a2.678,2.678,0,0,0,.543-.037.988.988,0,0,0,.8-.951.986.986,0,0,0-.787-.96,2.576,2.576,0,0,0-.543-.04q-7.513,0-15.026,0a2.659,2.659,0,0,0-.544.037.987.987,0,0,0-.8.951.984.984,0,0,0,.788.959A2.864,2.864,0,0,0-5119.354,331.064Z" transform="translate(-69.531 -267.729)"></path>
                                    <path id="Path_7619" data-name="Path 7619" d="M-5154,129.24a.944.944,0,0,0,.913.989.95.95,0,0,0,1.031-.86,3.15,3.15,0,0,0,.036-.543q0-3.207,0-6.413v-.561c.677-.031,1.276-.016,1.862-.1a.884.884,0,0,0,.766-1,.913.913,0,0,0-.887-.9q-2.758-.033-5.517,0a.947.947,0,0,0-.875.927.967.967,0,0,0,.759.974,3.432,3.432,0,0,0,.689.062c.39.009.782,0,1.212,0,0,1.046,0,2.021,0,3C-5154.01,126.291-5154.019,127.766-5154,129.24Z" transform="translate(-37.789 -84.109)"></path>
                                    <path id="Path_7620" data-name="Path 7620" d="M-5154.876,239.715a1.022,1.022,0,0,0-.991.982,1.022,1.022,0,0,0,.982.992,1.028,1.028,0,0,0,.993-.982A1.029,1.029,0,0,0-5154.876,239.715Z" transform="translate(-38.494 -189.29)"></path>
                                    <path id="Path_7621" data-name="Path 7621" d="M-5153.893,330.118a1.027,1.027,0,0,0-1-.978,1.021,1.021,0,0,0-.978,1,1.021,1.021,0,0,0,1,.978A1.028,1.028,0,0,0-5153.893,330.118Z" transform="translate(-38.494 -267.786)"></path>
                                    <path id="Path_7622" data-name="Path 7622" d="M-4916.541,238.02q-2.637,0-5.274,0c-1.775,0-3.549,0-5.324,0-.883,0-1.246.36-1.25,1.234q-.007,1.742,0,3.483c0,.88.365,1.251,1.237,1.252q5.325.006,10.648,0c.883,0,1.246-.364,1.25-1.239.005-1.144,0-2.289,0-3.433C-4915.255,238.365-4915.6,238.021-4916.541,238.02Zm-.74,3.959h-9.09v-1.929h9.09Z" transform="translate(-238.572 -187.847)"></path>
                                    <path id="Path_7623" data-name="Path 7623" d="M-4927.562,310.2a6.145,6.145,0,0,0,.818.079,6.587,6.587,0,0,0,.811-.07.975.975,0,0,0,.785-.958.961.961,0,0,0-.85-.953,8.1,8.1,0,0,0-1.489,0,.96.96,0,0,0-.831.919A.967.967,0,0,0-4927.562,310.2Z" transform="translate(-238.357 -249.465)"></path>
                                    <path id="Path_7624" data-name="Path 7624" d="M-4886.014,310.256a.936.936,0,0,0,.79-1,1,1,0,0,0-.891-.922,5.225,5.225,0,0,0-.645,0,6.451,6.451,0,0,0-.745.005.993.993,0,0,0-.886.927.938.938,0,0,0,.8.991A6.882,6.882,0,0,0-4886.014,310.256Z" transform="translate(-273.405 -249.516)"></path>
                                    <path id="Path_7625" data-name="Path 7625" d="M-4846.161,308.3a8.106,8.106,0,0,0-1.488.007.959.959,0,0,0-.823.926.97.97,0,0,0,.765.973,5.725,5.725,0,0,0,.782.073,6.86,6.86,0,0,0,.8-.053.988.988,0,0,0,.823-.98A.964.964,0,0,0-4846.161,308.3Z" transform="translate(-308.529 -249.465)"></path>
                                    <path id="Path_7626" data-name="Path 7626" d="M-4927.493,348.577a6.993,6.993,0,0,0,1.534,0,.949.949,0,0,0,.815-.979,1,1,0,0,0-.917-.951,5.874,5.874,0,0,0-.646,0,6.474,6.474,0,0,0-.7,0,1,1,0,0,0-.911.955A.951.951,0,0,0-4927.493,348.577Z" transform="translate(-238.361 -283.142)"></path>
                                    <path id="Path_7627" data-name="Path 7627" d="M-4886.044,346.574a6.265,6.265,0,0,0-.743-.039c0,.007,0,.014,0,.021a6.318,6.318,0,0,0-.7,0,1,1,0,0,0-.908.958.948.948,0,0,0,.824.972,7.028,7.028,0,0,0,1.581-.018.928.928,0,0,0,.765-.966A.991.991,0,0,0-4886.044,346.574Z" transform="translate(-273.407 -283.056)"></path>
                                    <path id="Path_7628" data-name="Path 7628" d="M-4846.236,346.635c-.213-.021-.43,0-.646,0s-.433-.017-.646,0a1,1,0,0,0-.939.929.959.959,0,0,0,.839,1.01,6.868,6.868,0,0,0,1.485,0,.96.96,0,0,0,.843-1.007A1,1,0,0,0-4846.236,346.635Z" transform="translate(-308.532 -283.135)"></path>
                                    <path id="Path_7629" data-name="Path 7629" d="M-4925.966,384.9a6.3,6.3,0,0,0-.744-.039c0,.007,0,.014,0,.021a6.283,6.283,0,0,0-.7,0,1,1,0,0,0-.907.959.948.948,0,0,0,.824.972,7.027,7.027,0,0,0,1.581-.018.929.929,0,0,0,.765-.966A.992.992,0,0,0-4925.966,384.9Z" transform="translate(-238.362 -316.775)"></path>
                                    <path id="Path_7630" data-name="Path 7630" d="M-4886.044,384.9a6.278,6.278,0,0,0-.743-.039c0,.007,0,.014,0,.021a6.318,6.318,0,0,0-.7,0,1,1,0,0,0-.908.958.949.949,0,0,0,.824.972,7.023,7.023,0,0,0,1.581-.018.928.928,0,0,0,.765-.966A.992.992,0,0,0-4886.044,384.9Z" transform="translate(-273.407 -316.775)"></path>
                                    <path id="Path_7631" data-name="Path 7631" d="M-4846.212,384.97a5.837,5.837,0,0,0-.646,0,6.545,6.545,0,0,0-.7,0,1,1,0,0,0-.917.95.949.949,0,0,0,.815.979,6.993,6.993,0,0,0,1.534,0,.95.95,0,0,0,.82-.975A1,1,0,0,0-4846.212,384.97Z" transform="translate(-308.531 -316.86)"></path>
                                </g>
                            </svg>