<svg xmlns="http://www.w3.org/2000/svg" width="201" height="44" viewBox="0 0 201 44" fill="none"><path d="M65.4004 36V8H81.9404V12.88H70.2804V18.56H80.0204V23.44H70.2804V36H65.4004Z" fill="black"></path><path d="M83.6816 16H88.5616V36H83.6816V16ZM86.1616 13.42C85.4416 13.42 84.835 13.1867 84.3416 12.72C83.8483 12.24 83.6016 11.64 83.6016 10.92C83.6016 10.2133 83.8483 9.62 84.3416 9.14C84.835 8.66 85.435 8.42 86.1416 8.42C86.8483 8.42 87.4416 8.66 87.9216 9.14C88.415 9.62 88.6616 10.2133 88.6616 10.92C88.6616 11.64 88.4216 12.24 87.9416 12.72C87.4616 13.1867 86.8683 13.42 86.1616 13.42Z" fill="black"></path><path d="M111.533 23.36V36H106.653V24.64C106.653 23.8533 106.46 23.14 106.073 22.5C105.686 21.8467 105.166 21.3333 104.513 20.96C103.873 20.5733 103.16 20.38 102.373 20.38C101.586 20.38 100.866 20.5733 100.213 20.96C99.5729 21.3333 99.0596 21.8467 98.6729 22.5C98.2996 23.14 98.1129 23.8533 98.1129 24.64V36H93.2329L93.2129 16H98.0929L98.1129 17.78C98.7929 17.06 99.6062 16.4933 100.553 16.08C101.5 15.6533 102.52 15.44 103.613 15.44C105.066 15.44 106.393 15.8 107.593 16.52C108.793 17.2267 109.746 18.18 110.453 19.38C111.173 20.5667 111.533 21.8933 111.533 23.36Z" fill="black"></path><path d="M115.635 36V8H125.635C127.155 8 128.528 8.38 129.755 9.14C130.995 9.9 131.975 10.92 132.695 12.2C133.415 13.48 133.775 14.8867 133.775 16.42C133.775 17.9933 133.401 19.42 132.655 20.7C131.921 21.9667 130.935 22.98 129.695 23.74C128.455 24.4867 127.101 24.86 125.635 24.86H120.515V36H115.635ZM120.515 19.98H125.115C125.808 19.98 126.441 19.8067 127.015 19.46C127.588 19.1133 128.041 18.6467 128.375 18.06C128.721 17.4733 128.895 16.82 128.895 16.1C128.895 15.3667 128.721 14.7067 128.375 14.12C128.041 13.5333 127.588 13.0667 127.015 12.72C126.441 12.3733 125.808 12.2 125.115 12.2H120.515V19.98Z" fill="black"></path><path d="M144.825 36.52C142.985 36.52 141.305 36.0467 139.785 35.1C138.279 34.1533 137.072 32.8867 136.165 31.3C135.272 29.7 134.825 27.9333 134.825 26C134.825 24.5333 135.085 23.1667 135.605 21.9C136.125 20.62 136.839 19.5 137.745 18.54C138.665 17.5667 139.732 16.8067 140.945 16.26C142.159 15.7133 143.452 15.44 144.825 15.44C146.665 15.44 148.339 15.9133 149.845 16.86C151.365 17.8067 152.572 19.08 153.465 20.68C154.372 22.28 154.825 24.0533 154.825 26C154.825 27.4533 154.565 28.8133 154.045 30.08C153.525 31.3467 152.805 32.4667 151.885 33.44C150.979 34.4 149.919 35.1533 148.705 35.7C147.505 36.2467 146.212 36.52 144.825 36.52ZM144.825 31.64C145.799 31.64 146.672 31.38 147.445 30.86C148.219 30.34 148.825 29.6533 149.265 28.8C149.719 27.9467 149.945 27.0133 149.945 26C149.945 24.96 149.712 24.0133 149.245 23.16C148.792 22.2933 148.172 21.6067 147.385 21.1C146.612 20.58 145.759 20.32 144.825 20.32C143.865 20.32 142.999 20.58 142.225 21.1C141.452 21.62 140.839 22.3133 140.385 23.18C139.932 24.0467 139.705 24.9867 139.705 26C139.705 27.0533 139.939 28.0067 140.405 28.86C140.872 29.7133 141.492 30.3933 142.265 30.9C143.052 31.3933 143.905 31.64 144.825 31.64Z" fill="black"></path><path d="M173.098 16H177.978V36H173.098L172.878 33.52C172.331 34.4133 171.604 35.14 170.698 35.7C169.804 36.2467 168.744 36.52 167.518 36.52C166.038 36.52 164.651 36.24 163.358 35.68C162.064 35.12 160.924 34.3467 159.938 33.36C158.964 32.3733 158.198 31.2333 157.638 29.94C157.091 28.6467 156.818 27.26 156.818 25.78C156.818 24.3533 157.078 23.0133 157.598 21.76C158.131 20.5067 158.871 19.4067 159.818 18.46C160.764 17.5133 161.858 16.7733 163.098 16.24C164.338 15.7067 165.671 15.44 167.098 15.44C168.418 15.44 169.598 15.7333 170.638 16.32C171.691 16.9067 172.584 17.6533 173.318 18.56L173.098 16ZM167.398 31.82C168.438 31.82 169.358 31.56 170.158 31.04C170.958 30.52 171.584 29.82 172.038 28.94C172.491 28.0467 172.718 27.0667 172.718 26C172.718 24.92 172.491 23.94 172.038 23.06C171.584 22.1667 170.951 21.46 170.138 20.94C169.338 20.42 168.424 20.16 167.398 20.16C166.371 20.16 165.431 20.4267 164.578 20.96C163.738 21.48 163.064 22.18 162.558 23.06C162.064 23.94 161.818 24.92 161.818 26C161.818 27.08 162.071 28.06 162.578 28.94C163.084 29.82 163.758 30.52 164.598 31.04C165.451 31.56 166.384 31.82 167.398 31.82Z" fill="black"></path><path d="M200.283 23.36V36H195.403V24.64C195.403 23.8533 195.21 23.14 194.823 22.5C194.436 21.8467 193.916 21.3333 193.263 20.96C192.623 20.5733 191.91 20.38 191.123 20.38C190.336 20.38 189.616 20.5733 188.963 20.96C188.323 21.3333 187.81 21.8467 187.423 22.5C187.05 23.14 186.863 23.8533 186.863 24.64V36H181.983L181.963 16H186.843L186.863 17.78C187.543 17.06 188.356 16.4933 189.303 16.08C190.25 15.6533 191.27 15.44 192.363 15.44C193.816 15.44 195.143 15.8 196.343 16.52C197.543 17.2267 198.496 18.18 199.203 19.38C199.923 20.5667 200.283 21.8933 200.283 23.36Z" fill="black"></path><g clip-path="url(#clip0_310_929)"><path fill-rule="evenodd" clip-rule="evenodd" d="M13.4284 0.876154L0.877383 13.4105C-0.293763 14.58 -0.293763 16.4958 0.877383 17.6654L8.22329 25.0015C9.39443 26.1711 11.3128 26.1711 12.4839 25.0015L27.1631 10.3419L17.689 0.876154C16.5179 -0.293435 14.5995 -0.293435 13.4284 0.876154Z" fill="#F9BF00"></path><path fill-rule="evenodd" clip-rule="evenodd" d="M45.0453 6.60672L19.5991 32.0191L19.5571 32.061C18.386 33.2306 16.4676 33.2306 15.2965 32.061L26.3699 43.1197C27.5411 44.2893 29.4594 44.2893 30.6305 43.1197L56.1187 17.6654C57.2899 16.4958 57.2899 14.58 56.1187 13.4105L47.1777 4.48134L45.0453 6.60672ZM42.4805 14.8232L45.5826 11.7252C45.8806 11.4276 46.3634 11.4192 46.674 11.6959L44.6465 13.7207L45.1964 14.2698L44.9362 14.5297L44.5038 14.098L42.5645 16.0347L42.4763 15.9467C42.1699 15.6323 42.1699 15.1292 42.4805 14.8232ZM44.7683 14.6932L44.3947 15.0663L44.3065 15.1544L44.9068 15.7538L44.1176 16.5419L44.2897 16.7138L45.0789 15.9257L45.6792 16.5252L46.0821 16.1227L46.5019 16.5419L44.7934 18.2481L42.7366 16.194L44.5038 14.4291L44.7683 14.6932ZM46.2584 15.955L46.7747 15.4394L47.2952 15.9592L49.1212 14.1357C49.4277 14.4417 49.4277 14.9489 49.1212 15.255L46.015 18.3529C45.7295 18.638 45.2804 18.6589 44.9697 18.42L46.8461 16.5461L46.2584 15.955ZM46.9468 15.2633L47.2911 14.9196L45.9184 13.5488L45.3727 14.0938L44.9949 13.7165L46.8503 11.8636L47.8116 12.8236L46.8041 13.8297L46.9762 14.0015L47.9837 12.9954L48.9449 13.9554L47.2911 15.6071L46.9468 15.2633ZM45.9184 13.8925L44.6549 15.1544L45.6833 16.1814L46.9468 14.9196L45.9184 13.8925ZM13.8189 26.3346C12.6478 27.5042 10.7336 27.5042 9.5625 26.3388L13.8147 30.5854L13.8189 30.5896L13.9616 30.7321C15.1328 31.9017 17.0511 31.9017 18.2223 30.7321L18.2642 30.6902L43.7104 5.27783L45.6875 3.30336L45.8429 3.14826L45.0453 2.35176L43.7104 1.01868L43.5677 0.876154C42.3966 -0.293435 40.4783 -0.293435 39.3071 0.876154L28.4981 11.6749L13.8189 26.3346Z" fill="#6349DF"></path></g><defs><clipPath id="clip0_310_929"><rect width="57" height="44" fill="white"></rect></clipPath></defs></svg>