<svg xmlns="http://www.w3.org/2000/svg" width="50" height="50" viewBox="0 0 50 50">
                                <g id="Group_5518" data-name="Group 5518" transform="translate(4506.992 -2044.332)">
                                    <path id="Path_8026" data-name="Path 8026" d="M-4196.678,2093.275a.885.885,0,0,0,.775.456,3.9,3.9,0,0,1,2.744,1.432,4.808,4.808,0,0,1,.834,2.308.709.709,0,0,0,.81.636.731.731,0,0,0,.657-.738,5.283,5.283,0,0,0-5.13-5.129A.719.719,0,0,0-4196.678,2093.275Z" transform="translate(-272.544 -41.92)"></path>
                                    <path id="Path_8027" data-name="Path 8027" d="M-4457.515,2187.757a1.59,1.59,0,0,0,.107-2.247,17.434,17.434,0,0,0-1.378-1.384,1.553,1.553,0,0,0-2.093-.024,6.234,6.234,0,0,0-.53.5c-.145.148-.217.144-.3-.065-.216-.561-.438-1.121-.689-1.667a.409.409,0,0,1,.11-.55c.426-.4.844-.816,1.243-1.245a1.625,1.625,0,0,0,.005-2.33c-.286-.312-.595-.6-.894-.9a1.755,1.755,0,0,0-2.67-.32c-.555-1.338-1.1-2.677-1.67-4.006-.108-.253.016-.348.167-.479.653-.564,1.308-1.127,1.951-1.7.443-.4.5-.8.2-1.146s-.726-.321-1.159.056q-9.885,8.588-19.764,17.183a53.737,53.737,0,0,1-8.854,6.543c-.948.534-1.9,1.064-2.894,1.5a1.209,1.209,0,0,1-1.749-.959,1.673,1.673,0,0,1,.249-.927,44.751,44.751,0,0,1,6-9.283c.4-.482.412-.907.061-1.205s-.764-.228-1.164.266c-.583.721-1.166,1.446-1.717,2.191a.478.478,0,0,1-.709.187c-1.97-.918-3.954-1.807-5.93-2.713a3.261,3.261,0,0,0-2.6-.194,6.13,6.13,0,0,0-2.8,2.529v.783a4.413,4.413,0,0,0,.889.936c2.167,1.614,4.309,3.259,6.485,4.859.419.308.474.539.215.969a2.648,2.648,0,0,0-.253,2.436,2.673,2.673,0,0,0,3.929,1.307c.474-.264.714-.2,1.037.243,1.645,2.247,3.325,4.468,5,6.692a1.373,1.373,0,0,0,2.224.176c.294-.281.578-.574.864-.864a3.338,3.338,0,0,0,.742-4.1c-.88-1.956-1.754-3.915-2.658-5.861a.538.538,0,0,1,.219-.816,13.281,13.281,0,0,0,1.317-1.008q4.742-4.078,9.462-8.18c.353-.308.488-.254.744.091q5.891,7.948,11.806,15.878a2.269,2.269,0,0,0,3.712.286q.954-.947,1.9-1.9a4.147,4.147,0,0,0,.955-4.761q-.471-1.2-.992-2.385a.467.467,0,0,1,.12-.624Q-4458.374,2188.662-4457.515,2187.757Zm-47.97-2.032c.383-.39.727-.782,1.116-1.124a1.821,1.821,0,0,1,2.089-.274c1.965.886,3.925,1.783,5.887,2.675.164.074.341.1.164.364-.788,1.174-1.524,2.38-2.224,3.661Zm17.612,12.132c.248.547.489,1.1.735,1.644a1.91,1.91,0,0,1-.4,2.284c-.305.315-.618.844-.943.856-.342.013-.555-.6-.815-.943-1.5-1.984-2.987-3.976-4.51-6.007,1.339-.743,2.606-1.527,3.875-2.369C-4489.237,2194.844-4488.554,2196.35-4487.873,2197.857Zm24.33-19.251c.188-.2.315.009.435.125.3.293.589.6.9.889.2.188.251.343.025.559-.3.289-.58.606-.92.967-.291-.7-.531-1.3-.788-1.89C-4464.059,2178.877-4463.71,2178.785-4463.542,2178.606Zm3.1,17.712c-.619.625-1.238,1.25-1.865,1.868a.839.839,0,0,1-1.463-.106q-6.013-8.068-12.023-16.138c-.144-.193-.208-.314.023-.514,2.736-2.361,5.462-4.733,8.249-7.153,1.09,2.642,2.153,5.223,3.219,7.8q2.251,5.451,4.507,10.9A2.715,2.715,0,0,1-4460.441,2196.318Zm.312-7.967c-.285-.687-.534-1.284-.78-1.882-.042-.1-.114-.2,0-.309.3-.295.6-.6.9-.9.143-.143.262-.07.375.044.345.345.687.7,1.037,1.035a.274.274,0,0,1-.006.455C-4459.1,2187.293-4459.583,2187.794-4460.129,2188.351Z" transform="translate(0 -109.927)"></path>
                                    <path id="Path_8028" data-name="Path 8028" d="M-4470.292,2052.214q7.812,5.976,15.631,11.94c.335.255.341.382.069.7-1.661,1.932-3.3,3.885-4.944,5.834a1.58,1.58,0,0,0-.276.4.692.692,0,0,0,.214.846.634.634,0,0,0,.811.041,1.982,1.982,0,0,0,.386-.375q8.014-9.472,16.024-18.949a15.454,15.454,0,0,1,11.292-5.635,1.855,1.855,0,0,1,2.1,2.278c-.068.643-.126,1.289-.226,1.927a15.947,15.947,0,0,1-2.4,6.242c-.312.486-.243.938.14,1.177s.759.1,1.063-.365a19.01,19.01,0,0,0,1.182-2.112,18.544,18.544,0,0,0,1.7-7.05,3.286,3.286,0,0,0-2.781-3.561,8.6,8.6,0,0,0-2.467.163,16.319,16.319,0,0,0-8.564,3.809,31.363,31.363,0,0,0-3.453,3.712c-.123.144-.2.316-.469.2-1.229-.541-2.468-1.054-3.729-1.589.068-.09.115-.155.166-.217a1.694,1.694,0,0,0-.093-2.479c-.373-.392-.745-.788-1.141-1.158a1.555,1.555,0,0,0-2.2-.022c-.232.207-.437.445-.663.66-.365.35-.65.95-1.093,1.007s-.912-.352-1.386-.509c-.426-.141-.506-.246-.141-.609a1.676,1.676,0,0,0,0-2.578q-.492-.517-1-1.022a1.605,1.605,0,0,0-2.488,0c-.523.522-1.052,1.04-1.543,1.592a.505.505,0,0,1-.7.123c-.9-.405-1.816-.788-2.732-1.162a4.029,4.029,0,0,0-4.7.945c-.63.623-1.241,1.266-1.86,1.9A2.368,2.368,0,0,0-4470.292,2052.214Zm18.94-3.084a.228.228,0,0,1,.375,0c.354.364.709.729,1.066,1.089.145.146.133.264.007.427-.446.571-.518.6-1.155.326-.475-.2-.947-.408-1.487-.641C-4452.131,2049.917-4451.739,2049.525-4451.352,2049.13Zm-7.877-1.905c.4-.413.806-.817,1.2-1.235.171-.182.309-.2.484-.007.323.348.664.681.993,1.023a.471.471,0,0,1,.129.2c.037.161-.835,1.065-1.006,1.056-.611-.258-1.228-.507-1.834-.777C-4459.447,2047.4-4459.3,2047.3-4459.229,2047.224Zm-10.359,2.2q.94-.976,1.892-1.939a2.641,2.641,0,0,1,3.124-.643q9.166,3.877,18.323,7.775a1.647,1.647,0,0,1,.194.121c-.921,1.09-1.83,2.168-2.74,3.245-1.423,1.683-2.853,3.359-4.262,5.053-.226.271-.353.248-.61.051q-7.9-6.057-15.816-12.1C-4470.129,2050.493-4470.16,2050.015-4469.588,2049.42Z" transform="translate(-31.098)"></path>
                                </g>
                            </svg>