<svg xmlns="http://www.w3.org/2000/svg" width="50" height="50.01" viewBox="0 0 50 50.01">
                                <g id="Group_5532" data-name="Group 5532" transform="translate(6063.566 692.13)">
                                    <path id="Path_7642" data-name="Path 7642" d="M-6039.542-692.13h1.953a1.613,1.613,0,0,0,.27.087,9.352,9.352,0,0,1,7.849,7.057c.119.485.193.981.294,1.5.719,0,1.417,0,2.116,0a3.651,3.651,0,0,1,3.827,3.839q.006,3.417,0,6.835v.549c.21.01.369.023.528.023,1.042,0,2.083,0,3.125,0a1.509,1.509,0,0,1,1.618,1.614c.005.911,0,1.823-.005,2.734q0,.244,0,.488a1.588,1.588,0,0,1-1.807,1.793c-1.135.005-2.27,0-3.42,0v2.93c1.238,0,2.44-.008,3.642,0a1.5,1.5,0,0,1,1.592,1.59c.006,1.123,0,2.246-.008,3.369a1.536,1.536,0,0,1-1.636,1.662c-1.025.021-2.05,0-3.076.007-.172,0-.344.017-.524.026v2.851c1.242,0,2.458-.009,3.674,0a1.518,1.518,0,0,1,1.57,1.573q.012,1.733-.01,3.466a1.525,1.525,0,0,1-1.6,1.593c-1.058.008-2.116,0-3.174,0h-.457v2.895h8.176v-.419q0-14.378,0-28.756a2.182,2.182,0,0,0-2.336-2.356c-1.025-.006-2.051.008-3.076-.007a.747.747,0,0,1-.83-.761c.015-.417.329-.687.833-.695q.855-.013,1.709,0a14.509,14.509,0,0,1,2.191.069,3.63,3.63,0,0,1,2.974,3.795q0,14.353,0,28.707c0,1.391-.527,1.924-1.9,1.924q-23.093,0-46.185.011a1.8,1.8,0,0,1-1.911-1.183v-30.273a.465.465,0,0,0,.076-.119,3.626,3.626,0,0,1,3.83-2.932q2.562,0,5.125,0h.588v-.58c0-.83-.012-1.66,0-2.489a3.645,3.645,0,0,1,3.831-3.785c.713,0,1.427,0,2.166,0,.034-.175.07-.315.087-.457a9.362,9.362,0,0,1,7.043-7.912C-6040.395-691.954-6039.967-692.037-6039.542-692.13Zm10.348,10.137c-.03.162-.062.288-.078.416a9.326,9.326,0,0,1-12.183,7.716,9.064,9.064,0,0,1-6.393-7.706c-.054-.344-.159-.476-.517-.456-.536.03-1.074.007-1.611.008a2.222,2.222,0,0,0-2.5,2.486q0,17.7,0,35.394c0,.171.018.341.027.513h5.878c0-.349,0-.671,0-.993,0-1.058-.005-2.116,0-3.173a.725.725,0,0,1,.71-.817c.449-.01.735.3.751.831.005.179,0,.358,0,.537v3.611h5.785v-12.828h-5.785v.562c0,1.481,0,2.962,0,4.443,0,.536-.278.86-.715.869-.458.01-.738-.319-.747-.884,0-.163,0-.325,0-.488q0-2.243,0-4.479c-1.138-.22-1.464-.621-1.464-1.769,0-.439-.008-.879,0-1.318a1.3,1.3,0,0,1,1.351-1.359q8.128-.01,16.256.014a1.579,1.579,0,0,1,.95.4c.587.524.592,3.016.01,3.535a5,5,0,0,1-1.048.563v12.746h5.82v-35.85c0-.163,0-.326-.005-.488a2.124,2.124,0,0,0-1.907-2.02C-6027.449-682.04-6028.3-681.993-6029.194-681.993Zm-24.754,6.855c-.223-.01-.382-.023-.542-.023q-2.588,0-5.174,0a2.207,2.207,0,0,0-2.436,2.453q0,14.279,0,28.558v.532h8.119v-2.906c-1.22,0-2.4.007-3.589,0a1.519,1.519,0,0,1-1.586-1.559c-.019-1.171-.019-2.343-.011-3.515a1.521,1.521,0,0,1,1.584-1.559c.813-.01,1.627,0,2.44,0h1.164v-2.878h-.554c-.977,0-1.953.011-2.929,0a1.552,1.552,0,0,1-1.7-1.7c-.008-1.107-.013-2.213-.009-3.32a1.5,1.5,0,0,1,1.579-1.6c1.025-.011,2.05,0,3.076,0h.534v-2.93h-.558c-.977,0-1.953.01-2.929,0a1.56,1.56,0,0,1-1.693-1.709q-.011-1.611-.009-3.222a1.53,1.53,0,0,1,1.682-1.7q1.562-.006,3.124,0c.224,0,.423.01.419-.313C-6053.955-673.39-6053.949-674.236-6053.949-675.139Zm15.385-15.526a7.92,7.92,0,0,0-7.911,7.919,7.924,7.924,0,0,0,7.883,7.9,7.925,7.925,0,0,0,7.937-7.9A7.922,7.922,0,0,0-6038.564-690.665Zm6.511,47.044v-12.827h-5.752v12.827Zm-14.5-14.369h15.971v-1.4h-15.971Zm27.1,6.327h-3.762v3.635h3.762Zm-.008-15.439v-3.627h-3.743v3.627Zm-3.743,5.909v3.64h3.731v-3.64Zm-34.491,13.163h3.709v-3.631h-3.709Zm.008-19.064c.2.01.369.026.542.026.764,0,1.527,0,2.29,0,.9,0,.9,0,.9-.9v-2.761h-3.734Zm3.708,5.926h-3.692v3.626h3.692Z" transform="translate(0)"></path>
                                    <path id="Path_7643" data-name="Path 7643" d="M-5951.2-519.165c-1.05,0-2.1,0-3.151,0a1.574,1.574,0,0,1-1.729-1.693q-.006-1.751.021-3.5a1.539,1.539,0,0,1,1.653-1.608q3.2-.009,6.4,0a1.557,1.557,0,0,1,1.673,1.645q.012,1.751,0,3.5a1.565,1.565,0,0,1-1.668,1.655C-5949.061-519.158-5950.128-519.165-5951.2-519.165Zm-3.338-5.278v3.742h6.666v-3.742Z" transform="translate(-93.549 -144.565)"></path>
                                    <path id="Path_7644" data-name="Path 7644" d="M-5855.856-525.975c1.067,0,2.135-.006,3.2,0a1.545,1.545,0,0,1,1.633,1.631q.009,1.776-.011,3.552a1.547,1.547,0,0,1-1.6,1.616q-3.253.017-6.5,0a1.548,1.548,0,0,1-1.6-1.615q-.015-1.8,0-3.6a1.543,1.543,0,0,1,1.584-1.581C-5858.058-525.984-5856.957-525.975-5855.856-525.975Zm3.307,5.282v-3.753h-6.659v3.753Z" transform="translate(-176.512 -144.56)"></path>
                                    <path id="Path_7645" data-name="Path 7645" d="M-5898.512-379.265a7.118,7.118,0,0,1-.006.848.677.677,0,0,1-.747.649.653.653,0,0,1-.7-.638,13.619,13.619,0,0,1,0-1.746.648.648,0,0,1,.713-.623.661.661,0,0,1,.725.613,6.872,6.872,0,0,1,.008.9Z" transform="translate(-142.247 -270.974)"></path>
                                    <path id="Path_7646" data-name="Path 7646" d="M-5912.543-660.871c0,.945.006,1.828,0,2.711-.009,1.111-.515,1.6-1.634,1.6-.467,0-.934.006-1.4,0a1.353,1.353,0,0,1-1.464-1.469c-.019-.931,0-1.863,0-2.879-.268,0-.493,0-.719,0-.8-.008-1.6.016-2.4-.034a1.271,1.271,0,0,1-1.23-1.274c-.025-.633-.025-1.268,0-1.9a1.3,1.3,0,0,1,1.328-1.286c.8-.026,1.6-.009,2.4-.01h.617c0-.794.033-1.54-.007-2.282-.081-1.515.381-2.2,2.068-2.084.332.022.667,0,1,0a1.338,1.338,0,0,1,1.436,1.393c.027.783.009,1.568.01,2.351,0,.18,0,.36,0,.616.795,0,1.541.035,2.282-.007,1.567-.09,2.186.426,2.076,2.07-.02.3,0,.6,0,.9a1.379,1.379,0,0,1-1.5,1.538c-.8.02-1.6,0-2.4.007C-5912.222-660.9-5912.351-660.885-5912.543-660.871Zm-1.5,2.8c0-1.076-.01-2.107,0-3.138.011-.817.389-1.181,1.209-1.192.667-.009,1.334,0,2,0h1.108v-1.5h-.581c-.817,0-1.634.008-2.451,0-.909-.011-1.274-.379-1.29-1.277,0-.25,0-.5,0-.75v-2.292h-1.5c0,.99,0,1.94,0,2.889,0,1.093-.34,1.428-1.438,1.432-.383,0-.767,0-1.15,0h-1.743v1.5h.564c.867,0,1.734-.009,2.6,0a1.037,1.037,0,0,1,1.16,1.139c.019.666.005,1.334.006,2v1.189Z" transform="translate(-123.769 -19.352)"></path>
                                    <path id="Path_7647" data-name="Path 7647" d="M-5855.047-379.289a7.22,7.22,0,0,1,.006-.848.666.666,0,0,1,.707-.636.661.661,0,0,1,.743.648,13.387,13.387,0,0,1,0,1.7.665.665,0,0,1-.733.662.68.68,0,0,1-.725-.674,8.478,8.478,0,0,1-.005-.849Z" transform="translate(-181.323 -270.976)"></path>
                                </g>
                            </svg>