<svg xmlns="http://www.w3.org/2000/svg" width="50" height="50.001" viewBox="0 0 50 50.001">
                                <g id="Group_5518" data-name="Group 5518" transform="translate(3841.348 -2307.217)">
                                    <path id="Path_7532" data-name="Path 7532" d="M-3792.907,2423.139c-.7-.038-1.4-.013-2.1-.02-.17,0-.34-.02-.535-.032v-.64q0-9.872,0-19.743a2.49,2.49,0,0,0-2.77-2.762q-4.124,0-8.248,0h-.594c-.015-.158-.032-.267-.034-.375-.044-2.078-.941-2.946-3.048-2.946h-12.348c-.211,0-.423,0-.633.02a2.478,2.478,0,0,0-2.307,2.445c-.008.269,0,.539,0,.856h-.636q-4.1,0-8.2,0a4.015,4.015,0,0,0-.967.085,2.451,2.451,0,0,0-1.846,2.582q0,9.92,0,19.841v.669c-.743,0-1.424.03-2.1-.007a1.852,1.852,0,0,0-2.072,1.311v9.024a2,2,0,0,0,2.109,1.274q22.89-.028,45.779-.013c.179,0,.358.007.537-.005a1.613,1.613,0,0,0,1.543-1.537q.036-4.244,0-8.489A1.569,1.569,0,0,0-3792.907,2423.139Zm-14.254-21.517c.135-.009.245-.023.354-.023q4.293,0,8.585,0c.732,0,1.014.274,1.014.987q0,10.085,0,20.169c0,.1-.012.191-.022.325h-9.932Zm-16.7,20.921q0-11.518,0-23.035c0-.995.232-1.226,1.234-1.226h12.539c1,0,1.235.232,1.235,1.225q0,11.518,0,23.035v.53h-15.009Zm-10.493-20.944q4.146,0,8.292,0h.507v21.5h-9.928c-.009-.188-.024-.358-.024-.529q0-9.915,0-19.83C-3835.508,2401.827-3835.277,2401.6-3834.355,2401.6Zm2.954,31.434h-3.252v-4.1h3.252Zm14.172.008h-2.415v-4.905h2.415Zm4.168,0h-2.416v-4.909h2.416Zm15-.005h-3.26v-4.09h3.26Zm5-.011h-3.27v-4.067l.227-.091a.787.787,0,0,0,.544-.918.768.768,0,0,0-.815-.689q-3.318-.02-6.637,0a.823.823,0,0,0-.841.73c-.053.432.189.732.8.97v4.072h-8.281v-4.937c.258,0,.5.01.737,0a.83.83,0,0,0,.89-.83.794.794,0,0,0-.885-.818q-5.759-.01-11.518,0a.794.794,0,0,0-.9.807.827.827,0,0,0,.878.842c.24.013.482,0,.752,0v4.922h-8.28v-4.071c.082-.026.159-.044.231-.075a.794.794,0,0,0,.554-.915.782.782,0,0,0-.818-.694q-3.319-.019-6.637,0a.779.779,0,0,0-.827.678c-.089.48.146.782.775,1.013v4.078h-3.265v-8.222h46.584Z" transform="translate(0 -77.505)"></path>
                                    <path id="Path_7533" data-name="Path 7533" d="M-3687.674,2312.819a2.018,2.018,0,0,1,.749,2.457,1.58,1.58,0,0,0,.649,1.8,1.555,1.555,0,0,0,1.91.068,1.762,1.762,0,0,1,2.353-.005,1.556,1.556,0,0,0,1.91-.062,1.693,1.693,0,0,0,.677-1.755c-.049-.327-.1-.656-.171-.979a.8.8,0,0,1,.273-.878,6.868,6.868,0,0,0,.865-.892,1.705,1.705,0,0,0-.969-2.769,5.837,5.837,0,0,0-1.078-.175.721.721,0,0,1-.719-.546c-.32-.784-.655-1.571-1.565-1.867h-.8a1.872,1.872,0,0,0-1.2,1.1,1.809,1.809,0,0,1-1.92,1.451,1.569,1.569,0,0,0-1.518,1.165A1.606,1.606,0,0,0-3687.674,2312.819Zm2.775-1.614a1.093,1.093,0,0,0,.951-.687c.22-.5.472-.983.768-1.592.259.551.5,1.007.691,1.481a1.2,1.2,0,0,0,1.079.811c.521.053,1.036.175,1.553.268l.126.179q-.656.568-1.312,1.135a1.047,1.047,0,0,0-.357,1.027c.091.587.169,1.176.269,1.872-.572-.312-1.054-.564-1.524-.837a1,1,0,0,0-1.078,0c-.489.277-.992.527-1.548.821.092-.568.152-1.077.26-1.575a1.362,1.362,0,0,0-.419-1.436c-.39-.349-.727-.755-1.155-1.208C-3685.962,2311.368-3685.433,2311.271-3684.9,2311.205Z" transform="translate(-133.168)"></path>
                                    <path id="Path_7534" data-name="Path 7534" d="M-3841.023,2350.073a2.212,2.212,0,0,1,.783,2.419,1.426,1.426,0,0,0,2.091,1.411,1.9,1.9,0,0,1,2.106,0,1.449,1.449,0,0,0,2.1-1.468,2.33,2.33,0,0,1,.727-2.353,1.488,1.488,0,0,0-.856-2.443,3.147,3.147,0,0,0-.588-.1.815.815,0,0,1-.832-.617,1.688,1.688,0,0,0-1.584-1.355,1.669,1.669,0,0,0-1.628,1.359.847.847,0,0,1-.886.621,1.787,1.787,0,0,0-1.759,1.282v.7C-3841.242,2349.716-3841.179,2349.959-3841.023,2350.073Zm3.922-2.551a2,2,0,0,0,2.373,1.67,5.214,5.214,0,0,0-1.053,1.345,5.194,5.194,0,0,0,.059,1.7,1.881,1.881,0,0,0-2.791-.029,2.274,2.274,0,0,0-.953-2.928A2.117,2.117,0,0,0-3837.1,2347.521Z" transform="translate(0 -33.252)"></path>
                                    <path id="Path_7535" data-name="Path 7535" d="M-3769.892,2325.823a1.227,1.227,0,0,1,.216.694,7.34,7.34,0,0,1-.16,1.049,1.58,1.58,0,0,0,2.243,1.649,2.14,2.14,0,0,1,2.455,0,1.545,1.545,0,0,0,2.216-1.667,2.323,2.323,0,0,1,.747-2.478,1.557,1.557,0,0,0-.922-2.7,1.869,1.869,0,0,1-1.818-1.388,1.432,1.432,0,0,0-1.456-.937,1.439,1.439,0,0,0-1.452.944,1.859,1.859,0,0,1-1.82,1.382,1.593,1.593,0,0,0-.963,2.69C-3770.379,2325.326-3770.089,2325.541-3769.892,2325.823Zm.714-1.824c.4-.063.8-.144,1.2-.186a1.142,1.142,0,0,0,1.069-.817c.133-.385.326-.749.521-1.185.22.463.429.858.6,1.27a1.105,1.105,0,0,0,.98.723c.409.05.815.121,1.339.2-.366.384-.648.718-.971,1.006a1.224,1.224,0,0,0-.39,1.256c.08.4.136.811.221,1.327-.427-.23-.775-.4-1.1-.6a1.124,1.124,0,0,0-1.3.005c-.33.209-.684.378-1.1.6a10.7,10.7,0,0,0,.222-1.5,1.578,1.578,0,0,0-.282-.94,8.53,8.53,0,0,0-1.1-1Z" transform="translate(-61.184 -11.121)"></path>
                                    <path id="Path_7536" data-name="Path 7536" d="M-3598.069,2325.1a1.783,1.783,0,0,1,.668,2.113,1.506,1.506,0,0,0,.619,1.754,1.535,1.535,0,0,0,1.9-.007,1.325,1.325,0,0,1,1.77-.01,1.539,1.539,0,0,0,1.946-.006,1.576,1.576,0,0,0,.584-1.822,1.607,1.607,0,0,1,.6-1.942,1.819,1.819,0,0,0,.712-1.362,5.851,5.851,0,0,0-.335-.864,1.42,1.42,0,0,0-1.234-.731,1.459,1.459,0,0,1-1.609-1.193.518.518,0,0,0-.138-.261,3.663,3.663,0,0,0-.9-.732,1.522,1.522,0,0,0-2.035.991,1.529,1.529,0,0,1-1.523,1.188,1.545,1.545,0,0,0-1.521,1.083A1.521,1.521,0,0,0-3598.069,2325.1Zm1.28-1.21c.379-.062.756-.147,1.137-.179a1.206,1.206,0,0,0,1.131-.82c.141-.365.332-.71.535-1.137.215.454.412.816.56,1.2a1.124,1.124,0,0,0,1.016.75c.409.047.815.122,1.323.2-.382.394-.69.731-1.02,1.046a1.124,1.124,0,0,0-.351,1.168c.1.416.136.846.2,1.269l-.06.152a2.134,2.134,0,0,0-3.322,0l-.08-.136c.058-.377.1-.76.18-1.132a1.284,1.284,0,0,0-.435-1.427c-.312-.245-.6-.513-.906-.771Z" transform="translate(-211.175 -11.007)"></path>
                                    <path id="Path_7537" data-name="Path 7537" d="M-3521.361,2350.32a1.308,1.308,0,0,1,.5,1.6.8.8,0,0,0-.014.1,1.5,1.5,0,0,0,.6,1.667,1.455,1.455,0,0,0,1.77.013,1.1,1.1,0,0,1,1.506,0,.648.648,0,0,0,.131.071,1.517,1.517,0,0,0,1.607-.041,1.333,1.333,0,0,0,.669-1.49,2.005,2.005,0,0,1,.681-2.166,1.494,1.494,0,0,0-.861-2.524,1.645,1.645,0,0,0-.391-.071.95.95,0,0,1-1.037-.782,2.113,2.113,0,0,0-.245-.487,1.552,1.552,0,0,0-1.283-.733,1.545,1.545,0,0,0-1.48,1.067,1.228,1.228,0,0,1-1.235.968,1.483,1.483,0,0,0-1.464,1.074A1.525,1.525,0,0,0-3521.361,2350.32Zm3.629-2.908a2.065,2.065,0,0,0,2.36,1.748,2.33,2.33,0,0,0-.938,2.953,1.984,1.984,0,0,0-2.861.018,2.236,2.236,0,0,0-.929-2.933A2.136,2.136,0,0,0-3517.732,2347.411Z" transform="translate(-277.882 -33.163)"></path>
                                    <path id="Path_7538" data-name="Path 7538" d="M-3691.2,2486.066c-.531-.009-1.062-.007-1.593,0a1.693,1.693,0,0,0-1.768,1.7c-.022.563-.022,1.129,0,1.692a1.694,1.694,0,0,0,1.768,1.7c.265,0,.531,0,.8,0,.249,0,.5,0,.747,0a1.673,1.673,0,0,0,1.783-1.723c.019-.563.022-1.129,0-1.692A1.663,1.663,0,0,0-3691.2,2486.066Zm-.007,3.372h-1.626v-1.65h1.626Z" transform="translate(-127.671 -155.569)"></path>
                                    <path id="Path_7539" data-name="Path 7539" d="M-3639.991,2486.051c-.58-.01-1.162-.016-1.742,0a1.626,1.626,0,0,0-1.606,1.53,16.737,16.737,0,0,0,0,1.989,1.636,1.636,0,0,0,1.628,1.562c.3.011.6,0,.9,0v0c.266,0,.531,0,.8,0a1.686,1.686,0,0,0,1.756-1.657,16.539,16.539,0,0,0,0-1.791A1.677,1.677,0,0,0-3639.991,2486.051Zm0,3.366h-1.635v-1.631H-3640Z" transform="translate(-172.217 -155.553)"></path>
                                    <path id="Path_7540" data-name="Path 7540" d="M-3692.867,2433.578c.281.009.564,0,.846,0h0c.249,0,.5,0,.747,0a1.673,1.673,0,0,0,1.789-1.767c.014-.564.021-1.129-.009-1.692a1.662,1.662,0,0,0-1.673-1.632c-.563-.019-1.128-.016-1.692,0a1.69,1.69,0,0,0-1.717,1.65,17.327,17.327,0,0,0,0,1.791A1.675,1.675,0,0,0-3692.867,2433.578Zm.013-3.354h1.636v1.633h-1.636Z" transform="translate(-127.653 -105.479)"></path>
                                    <path id="Path_7541" data-name="Path 7541" d="M-3639.974,2543.615c-.282-.008-.564,0-.846,0-.249,0-.5,0-.747,0a1.67,1.67,0,0,0-1.791,1.763c-.014.564-.021,1.129.008,1.692a1.661,1.661,0,0,0,1.671,1.634c.563.018,1.128.015,1.692,0a1.689,1.689,0,0,0,1.72-1.647,16.728,16.728,0,0,0,0-1.791A1.676,1.676,0,0,0-3639.974,2543.615Zm-.016,3.351h-1.651v-1.614h1.651Z" transform="translate(-172.217 -205.631)"></path>
                                    <path id="Path_7542" data-name="Path 7542" d="M-3641.794,2433.568c.33.022.663,0,.995,0v.01c.249,0,.5,0,.747,0a1.7,1.7,0,0,0,1.816-1.8c.01-.531.019-1.062,0-1.593a1.7,1.7,0,0,0-1.724-1.7c-.563-.015-1.128-.017-1.692,0a1.632,1.632,0,0,0-1.651,1.486,15.452,15.452,0,0,0,0,2.137A1.6,1.6,0,0,0-3641.794,2433.568Zm.195-3.357h1.628v1.644h-1.628Z" transform="translate(-172.239 -105.48)"></path>
                                    <path id="Path_7543" data-name="Path 7543" d="M-3691.1,2543.621c-.314-.015-.63,0-.945,0v0c-.282,0-.564-.007-.846,0a1.656,1.656,0,0,0-1.692,1.557,13.712,13.712,0,0,0,0,1.939,1.666,1.666,0,0,0,1.621,1.586c.613.026,1.229.026,1.841,0a1.628,1.628,0,0,0,1.6-1.538,16.132,16.132,0,0,0,0-2.038A1.612,1.612,0,0,0-3691.1,2543.621Zm-.127,3.355h-1.647v-1.628h1.647Z" transform="translate(-127.633 -205.632)"></path>
                                    <path id="Path_7544" data-name="Path 7544" d="M-3561.574,2498.79q-1.739-.032-3.479,0a1.665,1.665,0,0,0-1.652,1.648q-.026.894,0,1.789a1.659,1.659,0,0,0,1.651,1.644c.579.016,1.159,0,1.739,0s1.16.013,1.739,0a1.65,1.65,0,0,0,1.649-1.643q.026-.894,0-1.789A1.653,1.653,0,0,0-3561.574,2498.79Zm-.073,3.348h-3.347v-1.628h3.347Z" transform="translate(-238.926 -166.628)"></path>
                                    <path id="Path_7545" data-name="Path 7545" d="M-3565.038,2452.875q1.739.037,3.479,0a1.656,1.656,0,0,0,1.645-1.653q.025-.894,0-1.789a1.646,1.646,0,0,0-1.651-1.639c-.579-.017-1.159,0-1.739,0-.563,0-1.127-.011-1.69,0a1.662,1.662,0,0,0-1.7,1.7q-.017.844,0,1.689A1.671,1.671,0,0,0-3565.038,2452.875Zm.062-3.362h3.329v1.637h-3.329Z" transform="translate(-238.939 -122.276)"></path>
                                    <path id="Path_7546" data-name="Path 7546" d="M-3561.605,2549.807c-1.126-.025-2.253-.027-3.379,0a1.682,1.682,0,0,0-1.7,1.763c-.007.513-.006,1.027,0,1.54a1.681,1.681,0,0,0,1.764,1.791c.546.015,1.093,0,1.64,0v0c.58,0,1.16.022,1.739,0a1.65,1.65,0,0,0,1.643-1.7c.011-.546.01-1.093,0-1.64A1.678,1.678,0,0,0-3561.605,2549.807Zm-.012,3.356h-3.345v-1.633h3.345Z" transform="translate(-238.954 -211.004)"></path>
                                    <path id="Path_7547" data-name="Path 7547" d="M-3778.67,2498.778q-1.788-.042-3.578,0a1.644,1.644,0,0,0-1.594,1.648q-.024.894,0,1.789a1.649,1.649,0,0,0,1.651,1.64c.58.016,1.16,0,1.739,0s1.16.013,1.739,0a1.66,1.66,0,0,0,1.649-1.647c.017-.6.017-1.193,0-1.789A1.655,1.655,0,0,0-3778.67,2498.778Zm-.1,3.352h-3.345v-1.624h3.345Z" transform="translate(-49.843 -166.614)"></path>
                                    <path id="Path_7548" data-name="Path 7548" d="M-3778.692,2549.8q-1.737-.054-3.478,0a1.667,1.667,0,0,0-1.658,1.745q-.013.8,0,1.59a1.66,1.66,0,0,0,1.695,1.753c.563.021,1.126,0,1.689,0v-.006c.6,0,1.194.026,1.788-.006a1.65,1.65,0,0,0,1.612-1.682c.012-.563.011-1.126,0-1.689A1.665,1.665,0,0,0-3778.692,2549.8Zm-.071,3.351h-3.345v-1.633h3.345Z" transform="translate(-50.036 -210.989)"></path>
                                    <path id="Path_7549" data-name="Path 7549" d="M-3782.2,2452.876q1.738.037,3.478,0a1.671,1.671,0,0,0,1.655-1.7q.018-.844,0-1.69a1.665,1.665,0,0,0-1.7-1.694c-.563-.012-1.126,0-1.689,0-.58,0-1.16-.013-1.739,0a1.644,1.644,0,0,0-1.648,1.641q-.025.894,0,1.789A1.657,1.657,0,0,0-3782.2,2452.876Zm.066-3.357h3.346v1.628h-3.346Z" transform="translate(-49.843 -122.277)"></path>
                                </g>
                            </svg>