<svg xmlns="http://www.w3.org/2000/svg" width="50.76" height="50" viewBox="0 0 50.76 50">
                                <g id="Group_5529" data-name="Group 5529" transform="translate(5776.207 238.098)">
                                    <path id="Path_7609" data-name="Path 7609" d="M-5727.4-225.2v6.444h1.553v4.852h-1.551v6.449h1.559v4.834h-1.549v6.467h1.539v8.06h-49.97v-8.015h1.552v-6.467h-1.542v-4.852h1.549v-6.449h-1.557v-4.852h1.548V-225.2h-1.94c.075-.219.122-.377.183-.529,1.154-2.884,2.316-5.764,3.455-8.654a.68.68,0,0,1,.751-.523c5.347.017,10.693.008,16.04.019a1.092,1.092,0,0,0,.846-.332c.678-.677,1.376-1.334,2.062-2a2.82,2.82,0,0,1,4.1.007c.7.681,1.389,1.37,2.114,2.021a1.225,1.225,0,0,0,.747.288q8.045.024,16.09,0a.645.645,0,0,1,.725.487c1.141,2.906,2.312,5.8,3.471,8.7.061.152.108.309.177.51Zm-27.463,35.5v-.582c0-2.152-.009-4.3.007-6.456a5.069,5.069,0,0,1,.157-1.294,4.022,4.022,0,0,1,4.336-2.923,4.023,4.023,0,0,1,3.562,3.938c.025,2.253.007,4.506.008,6.759v.549h1.579v-30.606h-11.24V-189.7Zm-18.974-37.136h14.748c-.009-.154,0-.288-.025-.416-.178-1.077-.333-2.16-.553-3.228a.964.964,0,0,1,.455-1.166c.685-.46,1.306-1.016,1.972-1.546-.077-.051-.09-.067-.1-.067q-6.833-.008-13.666,0a.481.481,0,0,0-.353.249C-5772.187-230.98-5773-228.938-5773.835-226.839Zm46.021,0c-.821-2.049-1.629-4.038-2.406-6.038a.549.549,0,0,0-.624-.4q-6.555.015-13.11.008c-.138,0-.275.02-.506.038a12.1,12.1,0,0,0,1.544,1.211,1.655,1.655,0,0,1,.827,2.191c-.258.964-.343,1.975-.509,2.995Zm-15.725,37.126h16.078V-194.5h-16.078Zm-14.573-4.774h-16.078v4.782h16.078Zm29.041-1.676v-6.393h-14.462v6.382h1.613v-4.779h4.831v4.791h1.6v-4.784h4.848v4.783Zm-35.486-4.782h4.866v4.777h1.566v-6.386h-14.461v6.381h1.595v-4.778h4.849v4.79h1.586Zm35.5-12.918h-14.461v6.393h1.589v-4.79h4.83v4.783h1.621v-4.777h4.849v4.788h1.572Zm-35.5,1.615h4.866v4.777h1.567v-6.387h-14.462v6.382h1.613v-4.779h4.831v4.79h1.585Zm5.791-12.918h-13.825v6.392h1.607v-4.79h4.831v4.784h1.62v-4.778h4.848v4.79h1.552C-5757.878-220.965-5758.457-223.05-5758.769-225.166Zm29.7,6.4v-6.406h-13.812c-.312,2.137-.9,4.221-.633,6.394h1.58v-4.777h4.849v4.789h1.6v-4.783h4.847v4.783ZM-5748.41-189.7c0-2.507,0-4.957-.007-7.407a2.087,2.087,0,0,0-.15-.683,2.415,2.415,0,0,0-2.645-1.55,2.412,2.412,0,0,0-2.029,2.353c-.016,2.35-.006,4.7,0,7.052a1.4,1.4,0,0,0,.041.235Zm-8.053-42h11.2c-1.6-1.506-3.2-3.017-4.812-4.507a1.115,1.115,0,0,0-1.625.11c-.691.662-1.364,1.344-2.068,1.992C-5754.641-233.3-5755.536-232.524-5756.463-231.7Zm29.019,25.909h-16.076v1.554h16.076Zm-30.669,0h-16.078v1.555h16.078Zm0-11.3h-16.077v1.553h16.077Zm30.668,0h-16.076v1.553h16.076ZM-5754.066-230h-3.866c.091.539.176,1.045.259,1.535h3.607Zm10.346-.011h-3.841v1.564h3.583C-5743.893-228.973-5743.808-229.481-5743.72-230.015Zm-25.633,19.368v3.166h1.552v-3.166Zm7.994,3.187v-3.181h-1.54v3.181Zm8.942-14.548h3.165v-1.553h-3.165Zm13.662,14.545v-3.166h-1.552v3.166Zm6.459,0v-3.166h-1.557v3.166Zm-20.12-17.771h3.166v-1.556h-3.166Zm.017-4.792v1.57h3.156v-1.57Zm20.1,11.261v-3.166h-1.556v3.166Zm-35.513,22.608v-3.166h-1.552v3.166Zm6.471-25.787h-1.563v3.169h1.563Zm22.585,3.179v-3.166h-1.556v3.166Zm-1.571,22.6h1.57v-3.158h-1.57Zm8.027.008v-3.166h-1.554v3.166Zm-35.512-22.606v-3.166h-1.553v3.166Zm6.481,19.442h-1.57v3.148h1.57Zm16.819-25.9.246-1.559h-3.294v1.559Zm-12.632-.017h3.062v-1.553h-3.319Zm12.35,1.688h-2.766V-222h2.505C-5744.965-222.524-5744.881-223.017-5744.792-223.552Zm-9.283-.016h-2.789c.093.544.182,1.061.269,1.565h2.52Z" transform="translate(0 0)"></path>
                                    <path id="Path_7610" data-name="Path 7610" d="M-5609.45-94.175v6.406h-8.021v-6.406Zm-1.618,1.616h-4.787v3.174h4.787Z" transform="translate(-137.357 -124.536)"></path>
                                    <path id="Path_7611" data-name="Path 7611" d="M-5609.549-27.81h-8.02v-6.407h8.02Zm-1.6-4.794h-4.787v3.173h4.787Z" transform="translate(-137.271 -176.418)"></path>
                                </g>
                            </svg>