<svg xmlns="http://www.w3.org/2000/svg" width="72.495" height="50" viewBox="0 0 72.495 50">
                                <g id="Group_5039" data-name="Group 5039" transform="translate(11363.113 5353.775)">
                                    <g id="Group_3126" data-name="Group 3126" transform="translate(-11363.113 -5316.026)">
                                        <path id="Path_4741" data-name="Path 4741" d="M241.38-53.994v-.572h-1.338v-.989a.775.775,0,0,0-.289-.619,1.127,1.127,0,0,0-.748-.245,1.014,1.014,0,0,0-.677.221.747.747,0,0,0-.265.61.827.827,0,0,0,.072.316h.537a.665.665,0,0,1-.036-.107.774.774,0,0,1-.036-.2.292.292,0,0,1,.1-.225.343.343,0,0,1,.242-.1.345.345,0,0,1,.3.134.8.8,0,0,1,.063.134v1.065h-.555a.272.272,0,0,0-.063.017.257.257,0,0,0-.144.257q0,.141.531.619a1.849,1.849,0,0,0,.677.478.281.281,0,0,0,.26-.116.514.514,0,0,0,.035-.116v-.565Zm-.9-1.818h.9v3.655h.779v-3.655h.717v-.554h-2.4v.557Zm1.908,0h.9v3.655h.779v-3.655h.717v-.554h-2.4v.557Zm5.938,0v-.554h-4.034v.557h2.418v.931a.392.392,0,0,1-.01.1.283.283,0,0,1-.3.225.852.852,0,0,1-.655-.356,1.961,1.961,0,0,1-.224-.367l-.592.358c.12.182.219.329.3.441q.287.413.619.855.385.506.878,1.053c.108.122.25.274.431.458l.563-.432c-.119-.116-.214-.207-.287-.274-.246-.238-.415-.41-.51-.516-.065-.077-.2-.252-.4-.523-.03-.04-.069-.091-.116-.158a2.441,2.441,0,0,0,.417-.034.9.9,0,0,0,.358-.144.663.663,0,0,0,.238-.274.782.782,0,0,0,.071-.312v-1.03Zm-.492,0h3.361v.678h-1.936a.7.7,0,0,0-.474.2.881.881,0,0,0-.287.688,2.329,2.329,0,0,0,.7,1.387c.157.178.388.412.7.7l.531-.425q-.1,0-.573-.532a2.165,2.165,0,0,1-.619-1.113.311.311,0,0,1,.177-.309,1.01,1.01,0,0,1,.188-.049h1.592v2.426h.779v-3.655h.724v-.55h-4.865v.557Zm4.972-.557h-.493v.557h.8v3.655h.779v-3.655h.537v-.554h-.913c-.065-.171-.13-.346-.187-.523a3.182,3.182,0,0,0-.628-.968,1.54,1.54,0,0,0-1.138-.525,1.755,1.755,0,0,0-1.052.29.89.89,0,0,0-.4.759,1.221,1.221,0,0,0,.224.723c.079.1.119.144.126.149h.779c-.071-.027-.161-.154-.265-.382a1.087,1.087,0,0,1-.116-.449.479.479,0,0,1,.224-.406.9.9,0,0,1,.531-.158q.509,0,.9.748a6.569,6.569,0,0,1,.3.748Zm1.307.557h1.4a.766.766,0,0,1,.2.262.794.794,0,0,1,.122.394.552.552,0,0,1-.265.5.976.976,0,0,1-.52.132.848.848,0,0,1-.25-.033,1.536,1.536,0,0,0,.52,1.171,1.772,1.772,0,0,0,1.254.484,1.714,1.714,0,0,0,.9-.267v1.015h.779v-3.655h.726v-.555h-4.865v.557Zm3.361,1.8a.894.894,0,0,1-.362.382,1.127,1.127,0,0,1-.619.182.854.854,0,0,1-.834-.622,1.327,1.327,0,0,0,.681-.321.874.874,0,0,0,.252-.668,1.342,1.342,0,0,0-.067-.423,1.068,1.068,0,0,0-.177-.332h1.122v1.8Zm3.925-1.8h4.524v.822h-2.084a4.144,4.144,0,0,1,.313.456,1.907,1.907,0,0,1,.323.906c0,.343-.146.514-.442.514q-.547,0-1-1.022a3.4,3.4,0,0,1-.358-1.146l-.619.374q.092.308.189.606a3.646,3.646,0,0,0,.645,1.12,1.6,1.6,0,0,0,1.228.615,1.081,1.081,0,0,0,.783-.319,1.034,1.034,0,0,0,.327-.77,1.7,1.7,0,0,0-.065-.4,1.762,1.762,0,0,0-.148-.394h.9v2.293h.779v-3.655h.717v-.552h-6.02v.557Zm6.127-.557h-.492v.557h.8v3.655h.779v-3.655h.537v-.554h-.915q-.1-.257-.187-.523a3.149,3.149,0,0,0-.626-.968,1.54,1.54,0,0,0-1.138-.525,1.759,1.759,0,0,0-1.053.29.89.89,0,0,0-.4.759,1.212,1.212,0,0,0,.224.723c.078.1.119.144.126.149h.779c-.072-.027-.161-.154-.265-.382a1.065,1.065,0,0,1-.116-.449.476.476,0,0,1,.224-.406.9.9,0,0,1,.531-.158q.512,0,.9.748a6.023,6.023,0,0,1,.3.748Zm4.246.557v1.818c0,.062-.066.151-.2.265a.858.858,0,0,1-.592.233.675.675,0,0,1-.488-.187.656.656,0,0,1-.191-.494.713.713,0,0,1,.183-.5.619.619,0,0,1,.47-.194.883.883,0,0,1,.431.108c.017.011.041.027.072.049l-.081-.565a1.618,1.618,0,0,0-.555-.1,1.32,1.32,0,0,0-.922.341,1.1,1.1,0,0,0-.378.846,1.1,1.1,0,0,0,.418.9,1.6,1.6,0,0,0,1.043.336,1.278,1.278,0,0,0,.573-.123,1.4,1.4,0,0,0,.216-.142v1.065h.779v-3.655h.717v-.558h-4.614v.557Zm1,0h3.349v.9H273.8a.836.836,0,0,0-.152.034.254.254,0,0,0-.161.249c0,.111.139.327.421.648s.484.484.608.484a.215.215,0,0,0,.207-.132.557.557,0,0,0,.027-.134v-.557h1.37v2.161h.779v-3.655h.717v-.557h-4.848v.557Zm7.266-.557v.557h2.929v1.867l-1.165-.812a2.062,2.062,0,0,1,.214-.1.591.591,0,0,1,.207-.029,1.3,1.3,0,0,1,.34.041,1.481,1.481,0,0,0,.163.058l-.072-.548a1.693,1.693,0,0,0-.539-.091,1.435,1.435,0,0,0-.968.348,1.11,1.11,0,0,0-.4.871,1.222,1.222,0,0,0,.376.9,1.262,1.262,0,0,0,.923.374,1.59,1.59,0,0,0,.619-.116,1.947,1.947,0,0,0,.305-.175v1.065h.779v-3.655h.716v-.551Zm2.784,2.7a1.583,1.583,0,0,1-.187.107.989.989,0,0,1-.421.116.653.653,0,0,1-.506-.22.725.725,0,0,1-.2-.5.929.929,0,0,1,.017-.171l.036-.169,1.263.838Zm1.747-2.7h-.492v.557h.8v3.655h.779v-3.655h.537v-.557h-.913q-.1-.257-.187-.523a3.181,3.181,0,0,0-.626-.968,1.54,1.54,0,0,0-1.138-.525,1.76,1.76,0,0,0-1.053.29.89.89,0,0,0-.4.759,1.211,1.211,0,0,0,.224.723,1.715,1.715,0,0,0,.126.149H283c-.072-.027-.161-.154-.265-.382a1.087,1.087,0,0,1-.116-.449.475.475,0,0,1,.224-.406.9.9,0,0,1,.531-.158q.512,0,.9.748a6,6,0,0,1,.3.748Zm1.309.557h1.281v1.246h-.3a.587.587,0,0,0-.211.062.159.159,0,0,0-.077.145c0,.1.157.3.471.619s.525.478.631.478a.214.214,0,0,0,.207-.134.694.694,0,0,0,.036-.14v-.484h1.316v1.861h.779v-3.655h.716v-.555h-4.846Zm3.35,1.246h-1.316v-1.246h1.316Zm1-1.246h.9v3.655h.779v-3.655h.717v-.557h-2.4v.557Zm7.355-.557h-.941c-.024-.067-.042-.122-.055-.167a1.489,1.489,0,0,1-.061-.382.8.8,0,0,1,.222-.59.916.916,0,0,1,.673-.225,2.031,2.031,0,0,1,1.37.615,4.038,4.038,0,0,1,.531.615h.8c-.119-.151-.238-.3-.358-.458a4.867,4.867,0,0,0-.958-.846,2.467,2.467,0,0,0-1.362-.466,1.829,1.829,0,0,0-1.174.35,1.132,1.132,0,0,0-.442.931,1.629,1.629,0,0,0,.063.423q.027.1.063.2h-.9v.557h.9v3.655h.779v-3.655h.852v-.555Zm-.628.557h3.35v.9h-2.32a.837.837,0,0,0-.152.034.254.254,0,0,0-.161.249c0,.111.139.327.421.648s.484.484.609.484a.215.215,0,0,0,.207-.132.558.558,0,0,0,.027-.134v-.557h1.37v2.161h.779v-3.655h.717v-.56h-4.846v.557Zm4.355,0h1.513v1.089h-.484c-.061.017-.105.031-.135.041a.212.212,0,0,0-.134.2q0,.134.541.595a1.785,1.785,0,0,0,.712.461.258.258,0,0,0,.242-.125.475.475,0,0,0,.044-.225v-2.043H304.7v3.655h.771v-3.655h.724v-.548h-4.89v.557Zm4.4,0h1.281v1.246h-.305a.577.577,0,0,0-.21.062.156.156,0,0,0-.077.145c0,.1.157.3.47.619s.525.478.632.478a.211.211,0,0,0,.205-.134.674.674,0,0,0,.038-.14v-.484h1.315v1.861h.779v-3.655h.718v-.555h-4.846v.557Zm3.349,1.246h-1.315v-1.246h1.315Z" transform="translate(-238.061 58.384)"></path>
                                        <path id="Path_4742" data-name="Path 4742" d="M238.186-49.479V-53.7h.5v3.5h1.257v.718Zm2.105,0v-4.26h.5v4.26Zm.991,0v-4.26H243v.721h-1.21v1.006h1.047v.719h-1.047v1.81Zm2.133,0v-4.26h1.857v.721H243.92v.942h1.257v.717H243.92V-50.2h1.4v.718Zm3.286,0v-4.26h.5v4.26Zm.992,0v-4.26h.492l1.023,2.843v-2.843h.471v4.26h-.509l-1.007-2.772v2.776Zm2.388-1.385.493-.082c.055.545.238.817.545.817a.432.432,0,0,0,.36-.168.638.638,0,0,0,.132-.413.582.582,0,0,0-.045-.247.4.4,0,0,0-.14-.167,3.2,3.2,0,0,0-.454-.22,1.372,1.372,0,0,1-.472-.3,1.117,1.117,0,0,1-.238-.418,1.721,1.721,0,0,1-.088-.561,1.638,1.638,0,0,1,.112-.627.925.925,0,0,1,.313-.42.832.832,0,0,1,.493-.142.807.807,0,0,1,.689.334,1.639,1.639,0,0,1,.265.955l-.5.038a.954.954,0,0,0-.144-.484.386.386,0,0,0-.315-.136.4.4,0,0,0-.313.12.406.406,0,0,0-.111.29.436.436,0,0,0,.1.29,1.223,1.223,0,0,0,.459.262,1.661,1.661,0,0,1,.551.323,1.1,1.1,0,0,1,.26.437,2.1,2.1,0,0,1,.088.653,1.683,1.683,0,0,1-.244.932.845.845,0,0,1-.765.377q-.921,0-1.023-1.46Zm2.454-2.872h.5v2.3c0,.36.006.593.019.7a.828.828,0,0,0,.16.436.405.405,0,0,0,.332.154.392.392,0,0,0,.285-.109.585.585,0,0,0,.152-.3,5.473,5.473,0,0,0,.039-.83v-2.355h.506V-51.5a8.406,8.406,0,0,1-.065,1.237,1.136,1.136,0,0,1-.3.619.8.8,0,0,1-.608.236.886.886,0,0,1-.61-.194,1.126,1.126,0,0,1-.318-.552,5.648,5.648,0,0,1-.1-1.311v-2.271Zm2.528,4.26v-4.26h1.061a1.121,1.121,0,0,1,.584.115.828.828,0,0,1,.287.4,1.831,1.831,0,0,1,.112.678,1.633,1.633,0,0,1-.172.8.747.747,0,0,1-.486.382,1.607,1.607,0,0,1,.265.356,5.79,5.79,0,0,1,.289.692l.3.831h-.6l-.366-.927a6.38,6.38,0,0,0-.265-.627.452.452,0,0,0-.15-.175.5.5,0,0,0-.254-.048h-.1v1.777Zm.5-2.457h.374a1.389,1.389,0,0,0,.437-.041.315.315,0,0,0,.152-.169.826.826,0,0,0,.058-.339.768.768,0,0,0-.057-.327.332.332,0,0,0-.158-.169,1.419,1.419,0,0,0-.41-.031h-.395v1.078Zm4.272,2.457h-.548l-.219-.968h-1l-.207.968h-.537l.973-4.26h.535l1,4.26Zm-.93-1.683-.343-1.581-.34,1.581Zm1.2,1.683v-4.26h.492l1.023,2.843v-2.843h.47v4.26h-.509l-1-2.776v2.776Zm4.118-1.565.488.264a2.237,2.237,0,0,1-.38,1.044.813.813,0,0,1-.656.329.9.9,0,0,1-.8-.525,3.28,3.28,0,0,1-.354-1.638,3.445,3.445,0,0,1,.354-1.7.923.923,0,0,1,.822-.534.843.843,0,0,1,.708.4,2.119,2.119,0,0,1,.295.846l-.5.2a1.1,1.1,0,0,0-.189-.53.419.419,0,0,0-.336-.185.521.521,0,0,0-.452.338,2.593,2.593,0,0,0-.177,1.113,2.734,2.734,0,0,0,.171,1.143.507.507,0,0,0,.442.341.414.414,0,0,0,.344-.216,1.65,1.65,0,0,0,.211-.687Zm.922,1.565v-4.26h1.858v.721h-1.352v.942h1.257v.717h-1.257v1.162h1.4v.718Zm4.9-1.565.49.264a2.254,2.254,0,0,1-.38,1.044.817.817,0,0,1-.656.329.906.906,0,0,1-.8-.525,3.283,3.283,0,0,1-.354-1.638,3.427,3.427,0,0,1,.354-1.7.922.922,0,0,1,.822-.534.841.841,0,0,1,.7.4,2.094,2.094,0,0,1,.3.846l-.5.2a1.125,1.125,0,0,0-.191-.53.416.416,0,0,0-.335-.185.517.517,0,0,0-.452.338,2.567,2.567,0,0,0-.177,1.113,2.76,2.76,0,0,0,.171,1.143.509.509,0,0,0,.442.341.416.416,0,0,0,.346-.216,1.679,1.679,0,0,0,.21-.687Zm.82-.538a4.03,4.03,0,0,1,.163-1.253,1.7,1.7,0,0,1,.421-.733.9.9,0,0,1,.629-.24,1,1,0,0,1,.877.57,3.255,3.255,0,0,1,.338,1.63,3.275,3.275,0,0,1-.358,1.669.96.96,0,0,1-.853.532.958.958,0,0,1-.858-.525,3.232,3.232,0,0,1-.358-1.646Zm.52-.027a2.376,2.376,0,0,0,.2,1.1.582.582,0,0,0,.5.369.573.573,0,0,0,.493-.365,2.466,2.466,0,0,0,.2-1.119,2.411,2.411,0,0,0-.191-1.1.565.565,0,0,0-.5-.354.576.576,0,0,0-.5.356A2.441,2.441,0,0,0,271.4-51.605Zm2.3,2.13v-4.26h1.061a1.121,1.121,0,0,1,.584.115.817.817,0,0,1,.287.4,1.832,1.832,0,0,1,.112.678,1.615,1.615,0,0,1-.172.8.747.747,0,0,1-.486.382,1.611,1.611,0,0,1,.265.356,5.8,5.8,0,0,1,.289.692l.3.831h-.6l-.366-.927a6.329,6.329,0,0,0-.265-.627.452.452,0,0,0-.15-.175.5.5,0,0,0-.254-.048h-.1v1.777Zm.5-2.457h.374a1.383,1.383,0,0,0,.437-.041.309.309,0,0,0,.152-.169.825.825,0,0,0,.059-.339.765.765,0,0,0-.059-.327.326.326,0,0,0-.158-.169,1.413,1.413,0,0,0-.409-.031h-.4v1.078Zm2.016,2.457v-4.26h.813a1.785,1.785,0,0,1,.594.062.769.769,0,0,1,.366.42,2.038,2.038,0,0,1,.146.831,2.087,2.087,0,0,1-.126.775.917.917,0,0,1-.313.439,1.206,1.206,0,0,1-.645.127h-.33v1.605Zm.5-3.535V-51.8H277a.878.878,0,0,0,.382-.055.4.4,0,0,0,.166-.2.875.875,0,0,0,.065-.353.861.861,0,0,0-.065-.356.4.4,0,0,0-.166-.194,1.1,1.1,0,0,0-.413-.048Zm1.727,1.433a4.022,4.022,0,0,1,.173-1.255,1.7,1.7,0,0,1,.421-.733.9.9,0,0,1,.631-.24,1,1,0,0,1,.875.57,3.237,3.237,0,0,1,.338,1.63,3.274,3.274,0,0,1-.358,1.669.96.96,0,0,1-.853.532.963.963,0,0,1-.858-.525,3.234,3.234,0,0,1-.358-1.646Zm.521-.027a2.377,2.377,0,0,0,.2,1.1.584.584,0,0,0,.5.369.573.573,0,0,0,.493-.365,2.443,2.443,0,0,0,.2-1.119,2.391,2.391,0,0,0-.191-1.1.565.565,0,0,0-.5-.354.577.577,0,0,0-.5.356,2.444,2.444,0,0,0-.193,1.109Zm2.3,2.13v-4.26h1.061a1.118,1.118,0,0,1,.584.115.809.809,0,0,1,.287.4,1.833,1.833,0,0,1,.112.678,1.634,1.634,0,0,1-.171.8.753.753,0,0,1-.488.382,1.611,1.611,0,0,1,.265.356,5.793,5.793,0,0,1,.289.692l.3.831h-.6l-.366-.927a6.376,6.376,0,0,0-.265-.627.463.463,0,0,0-.149-.175.5.5,0,0,0-.254-.048h-.105v1.777Zm.5-2.457h.374a1.394,1.394,0,0,0,.442-.041.315.315,0,0,0,.152-.169.852.852,0,0,0,.058-.339.79.79,0,0,0-.058-.327.333.333,0,0,0-.159-.169,1.406,1.406,0,0,0-.409-.031h-.4v1.078Zm4.273,2.457H285.5l-.219-.968h-1l-.207.968h-.537l.973-4.26h.535l1,4.26Zm-.931-1.683-.343-1.581-.34,1.581Zm1.5,1.683v-3.535h-.744v-.721h1.988v.721h-.74v3.535Zm1.556,0v-4.26h.5v4.26Zm.884-2.1a4.08,4.08,0,0,1,.176-1.255,1.7,1.7,0,0,1,.421-.733.9.9,0,0,1,.631-.24,1,1,0,0,1,.875.57,3.235,3.235,0,0,1,.338,1.63,3.258,3.258,0,0,1-.358,1.669.954.954,0,0,1-.853.532.958.958,0,0,1-.856-.525,3.221,3.221,0,0,1-.358-1.646Zm.52-.027a2.4,2.4,0,0,0,.2,1.1.584.584,0,0,0,.5.369.571.571,0,0,0,.493-.365,2.445,2.445,0,0,0,.2-1.119,2.393,2.393,0,0,0-.191-1.1.564.564,0,0,0-.5-.354.573.573,0,0,0-.5.356,2.42,2.42,0,0,0-.194,1.109Zm2.306,2.13v-4.26h.492l1.023,2.843v-2.843h.471v4.26h-.509l-1.008-2.776v2.776Zm3.389-2.1a4.076,4.076,0,0,1,.161-1.253,1.7,1.7,0,0,1,.421-.733.9.9,0,0,1,.631-.24,1,1,0,0,1,.875.57,3.236,3.236,0,0,1,.338,1.63,3.26,3.26,0,0,1-.358,1.669.954.954,0,0,1-.854.532.958.958,0,0,1-.856-.525,3.221,3.221,0,0,1-.358-1.646Zm.52-.027a2.378,2.378,0,0,0,.2,1.1.58.58,0,0,0,.494.369.571.571,0,0,0,.493-.365,2.446,2.446,0,0,0,.2-1.119,2.415,2.415,0,0,0-.189-1.1.566.566,0,0,0-.5-.354.573.573,0,0,0-.5.356A2.421,2.421,0,0,0,295.793-51.6Zm2.3,2.13v-4.26h1.714v.721h-1.2v1.006h1.045v.719h-1.045v1.81Zm3.089,0v-4.26h.519v4.26Zm.992,0v-4.26h.492l1.023,2.843v-2.843h.47v4.26h-.507l-1.008-2.776v2.776Zm2.514-4.26h.922a1.01,1.01,0,0,1,.531.109,1.014,1.014,0,0,1,.329.367,2.324,2.324,0,0,1,.234.67,5.1,5.1,0,0,1,.088,1.024,4.546,4.546,0,0,1-.088.962,2.241,2.241,0,0,1-.227.646.993.993,0,0,1-.332.358.951.951,0,0,1-.5.12H304.7v-4.26Zm.5.721V-50.2h.378a.722.722,0,0,0,.354-.063.485.485,0,0,0,.177-.194,1.367,1.367,0,0,0,.114-.41,4.58,4.58,0,0,0,.047-.733,4.665,4.665,0,0,0-.047-.748,1.189,1.189,0,0,0-.146-.428.462.462,0,0,0-.242-.205,1.419,1.419,0,0,0-.41-.038Zm2.007,3.535v-4.26h.5v4.26Zm3.242,0H309.9l-.219-.968h-.984l-.207.968h-.537l.973-4.26h.535l1,4.26Zm-.93-1.683-.344-1.581-.338,1.581Z" transform="translate(-237.994 61.653)"></path>
                                    </g>
                                    <path id="Union_37" data-name="Union 37" d="M13.144,31.947a.941.941,0,0,1-.352-.66.687.687,0,0,1,.09-.393,1,1,0,0,1,.105-.148q-.036,0-.171-.184a.838.838,0,0,1-.177-.412.329.329,0,0,1,.045-.19.2.2,0,0,1,.141-.084l.707-.048-.03-.345-1.181.078.047,2.331-.352-.019L12,31.181a.826.826,0,0,1-.1.087.43.43,0,0,1-.256.071.647.647,0,0,1-.475-.248.936.936,0,0,1-.192-.6.851.851,0,0,1,.159-.541.465.465,0,0,1,.409-.206.549.549,0,0,1,.253.074l.045.374-.036-.035a.335.335,0,0,0-.192-.08.219.219,0,0,0-.208.116.529.529,0,0,0-.078.322.544.544,0,0,0,.1.328.269.269,0,0,0,.22.132.3.3,0,0,0,.262-.138A.306.306,0,0,0,12,30.672l-.024-1.182,0,0-1.4-.074-.009-.361,2.075.106v.007l1.57-.1.033.361-.418.023.057.689-.809.055a.117.117,0,0,0-.06.084.26.26,0,0,0,.048.106,1.234,1.234,0,0,0,.108.129.5.5,0,0,0,.078.064l.045-.019a1.136,1.136,0,0,1,.232-.045.607.607,0,0,1,.415.113.486.486,0,0,1,.211.383A.539.539,0,0,1,14,31.48l-.274-.206c.075-.026.105-.116.1-.232a.161.161,0,0,0-.087-.151.4.4,0,0,0-.192-.029.417.417,0,0,0-.3.132.386.386,0,0,0-.1.316.547.547,0,0,0,.241.412.8.8,0,0,0,.514.206l-.075.328A1.06,1.06,0,0,1,13.144,31.947ZM14.7,29.316l-.4.068,0,0-.054-.354,1.065-.174.006.041,1.342-.312.063.357-.577.132.141.8.577-.135.063.351,0,0-.577.132.054.309v.1c-.009.061-.027.093-.075.106s-.159-.071-.331-.241a1.007,1.007,0,0,1-.277-.351.1.1,0,0,1,.018-.1.224.224,0,0,1,.084-.068l.132-.029-.141-.8-.559.132-.01-.052-.2.033.325,2.367-.346.055Zm-5.763,2.3.054-1.2-.59-.1-.015.312-.024.084c-.021.058-.048.08-.1.071s-.135-.126-.268-.354a1.242,1.242,0,0,1-.192-.435.1.1,0,0,1,.039-.087.151.151,0,0,1,.1-.026l.138.023.036-.8-.33-.057v.006l-.115-.026L7.541,29v-.006l-.072-.016L7.3,31.329l-.349-.077.106-1.506-.244.054a.834.834,0,0,1-.322.023,1.163,1.163,0,0,1-.349-.148,1.557,1.557,0,0,1-.259-.187c-.063,0-.126.055-.192.158a.489.489,0,0,0-.081.241.424.424,0,0,0,.123.377.417.417,0,0,0,.177.093v-.093a.328.328,0,0,1,.084-.206.157.157,0,0,1,.162-.064.3.3,0,0,1,.192.135.412.412,0,0,1,.054.245.3.3,0,0,1-.1.225.238.238,0,0,1-.078.032,1.009,1.009,0,0,0,.093.18l.048.071.063.077-.262.193-.051-.113-.045-.106-.084-.245-.072.01a.2.2,0,0,1-.087,0,.666.666,0,0,1-.409-.322.93.93,0,0,1-.141-.573.746.746,0,0,1,.171-.412.493.493,0,0,1,.214-.171.587.587,0,0,1-.1-.206,1.006,1.006,0,0,1-.039-.367.484.484,0,0,1,.156-.338.361.361,0,0,1,.325-.068.585.585,0,0,1,.337.245.671.671,0,0,1,.12.441.463.463,0,0,1-.271.428.6.6,0,0,0,.135.084.623.623,0,0,0,.144.045l0-.026a.844.844,0,0,0,.358-.032,1.844,1.844,0,0,0,.257-.075l.032-.449-.406-.087.027-.357.395.086L6.362,27.3l.307-.132L7.375,28.6l.39.085,1.968.329-.018.361L9.4,29.316l-.105,2.36ZM8.416,29.96l.59.1.036-.8-.59-.1Zm-2.56-1.378a.22.22,0,0,0-.057.148v.019a.52.52,0,0,0,.033.225.276.276,0,0,0,.09.142.4.4,0,0,0,.1-.055.261.261,0,0,0,.111-.206A.374.374,0,0,0,6.1,28.65a.182.182,0,0,0-.123-.106.115.115,0,0,0-.032,0A.121.121,0,0,0,5.856,28.582Zm-1.69,2.028.292-2.318-.481-.151-.165,1.3a.334.334,0,0,1-.039.132.09.09,0,0,1-.117.045c-.048-.016-.141-.148-.28-.39a1.191,1.191,0,0,1-.192-.451.126.126,0,0,1,.075-.109h.063l.214.068.087-.7-.671-.206,0-.006.005-.043-.032-.012-.385,2.286L2.2,29.925l.388-2.286-.4-.151,0-.01.057-.348.4.156L2,25.955l.316-.08.563,1.505.421.166,0,.02,1.871.583-.045.351L4.8,28.4l-.289,2.318ZM2.894,27.42h0Zm15.938,2.66a.681.681,0,0,1-.343.306.629.629,0,0,1-.611-.109,1.112,1.112,0,0,1-.4-.657.266.266,0,0,0,.111-.023.36.36,0,0,0,.192-.161.449.449,0,0,0,.036-.357.638.638,0,0,0-.111-.229.5.5,0,0,0-.123-.132l-.6.2-.082-.34,2.078-.75.084.351-.31.113.565,2.3-.334.119Zm-.9-1.5a.687.687,0,0,1,.129.18,1.5,1.5,0,0,1,.093.254.8.8,0,0,1,0,.46.652.652,0,0,1-.244.309.384.384,0,0,0,.454.261.454.454,0,0,0,.235-.206.6.6,0,0,0,.1-.3l-.006-.006L18.414,28.4Zm2.478,1.613a.752.752,0,0,1-.466-.518.739.739,0,0,1,0-.412.959.959,0,0,1,.072-.184c-.018.01-.084-.032-.2-.119a.7.7,0,0,1-.247-.332.272.272,0,0,1,0-.206.208.208,0,0,1,.108-.135l.662-.309-.1-.325-1.137.531-.006.006-.1-.341,1.829-.856.105.341-.385.18.192.654-.758.354a.116.116,0,0,0-.033.1.17.17,0,0,0,.066.087c.03.026.072.048.123.084a.159.159,0,0,0,.084.039l.042-.039a1.01,1.01,0,0,1,.208-.132.58.58,0,0,1,.415-.042.384.384,0,0,1,.277.3.619.619,0,0,1-.051.515l-.3-.093a.255.255,0,0,0,.045-.267.145.145,0,0,0-.117-.119.446.446,0,0,0-.192.045.533.533,0,0,0-.256.241.456.456,0,0,0-.021.345.443.443,0,0,0,.31.309.686.686,0,0,0,.529,0v.348a.9.9,0,0,1-.294.05A.875.875,0,0,1,20.408,30.192ZM.981,29.429l.141-.618a.57.57,0,0,1-.43-.026.971.971,0,0,1-.472-.554,1.381,1.381,0,0,1-.066-.824.474.474,0,0,0,.105.071A.321.321,0,0,0,.5,27.5.3.3,0,0,0,.7,27.256a.8.8,0,0,0,0-.267.98.98,0,0,0-.051-.206l-.6-.293-.006.01.075-.341,2.1,1.014-.075.341-.313-.151-.505,2.231Zm-.241-1a.355.355,0,0,0,.292.019.384.384,0,0,0,.211-.161l-.006,0,.247-1.1L1,26.95a.818.818,0,0,1,.03.241,1.191,1.191,0,0,1-.03.274.539.539,0,0,1-.192.354.446.446,0,0,1-.337.058A.589.589,0,0,0,.74,28.431Zm23.8.779v0l.009,0Zm-.953-.219.081-.4.893.367-.021.246Zm-6.608-.068h0l0,.011Zm5.9-1.42-.526.322.111.283.015.1a.125.125,0,0,1-.051.126c-.045.029-.168-.013-.361-.126s-.3-.2-.325-.258a.131.131,0,0,1,0-.106.267.267,0,0,1,.072-.084l.117-.074-.277-.744-.511.312v.01l-.126-.332,1.937-1.182.123.328-.289.177.821,2.167-.31.19Zm-.926-.744.28.741.526-.319-.277-.744ZM9.369,28.428l.012-.412.331.048-.012.412ZM3.9,24.818c.132-.583,1.275-2.238,1.275-2.54v-.119c0-.364-2.83-4.936-3.245-5.686A9.494,9.494,0,0,1,.081,9.46V8.494a11.848,11.848,0,0,1,1.26-4.743,9.707,9.707,0,0,0,.7-2.293c.171-1.806,1.17-.161,1.17.132,0,1.214-2.087,4.6-2.087,7.013v.724L1.26,10.9h.214V9.205c0-3.564,2.313-6.021,2.313-8.346l0-.01V0h.349a.827.827,0,0,1,.668.258.965.965,0,0,1,.259.708v.724c0,1.629-2.9,5.628-2.548,8.1l.229,1.816h.235V9.073c0-2.663,2.364-5.194,2.662-8.948a1.189,1.189,0,0,1,.975.332,1.376,1.376,0,0,1,.418.995c0,.621-.319-.048-.668.876a7.869,7.869,0,0,0-.232,1.211c-.177.753-.433,1.452-.68,2.2a14.719,14.719,0,0,0-1.089,4.788v.145c0,.56.22.367.232,1.092h.232c-.036-.5-.114-.27-.114-.724a14.308,14.308,0,0,1,.938-4.582c.214-.654.487-1.439.659-2.1.156-.58.295-1.913.836-1.913h.117c.965,0,.394,2.624.253,3.168a6.716,6.716,0,0,0-.484,3.361A13.136,13.136,0,0,1,6.7,10.819c-.042.46.514,1.03.656,1.442.346.992-.045.65.6,1.552a13.6,13.6,0,0,1,.806,1.333c.677,1.2,3.017,3.973,3.017,5.438,0,2.582-1.8,1.735-1.856,4.234Zm9.477-2.032a2.5,2.5,0,0,1-.9-2.086v-.241c0-1.278,1.925-3.812,2.569-4.694.562-.782.824-1.388,1.459-2.228.391-.512.132-.934.373-1.426.192-.4.577-.618.577-1.2,0-.171-.2-3.407-.253-3.732a12.432,12.432,0,0,1-.791-3.043V3.287c0-.406.2-.847.577-.847.274,0,.34.2.577.364,0,2.125,1.853,4.878,1.853,7.38v1.571h.232l.141-1.327a14.664,14.664,0,0,0-1.053-4.743,15.16,15.16,0,0,1-.7-2.173,8.537,8.537,0,0,0-.208-1.236c-.238-.9-.611-.119-.611-.815V1.343l0-.013a1.355,1.355,0,0,1,.77-1.137c.767-.454.6.138.617.9a11.989,11.989,0,0,0,.929,2.9,15.131,15.131,0,0,1,1.735,5.8c0,.773-.346,1.584.114,1.938l.277-1.565-.045-.853c0-3.072-2.551-5.78-2.551-8.1V1.092A1.064,1.064,0,0,1,20.113.006h.349V1.224a26.069,26.069,0,0,0,1.579,4.517,8.937,8.937,0,0,1,.641,2.505c.033.786-.244,2.425.226,2.788a6.706,6.706,0,0,0,.117-.85V7.766c0-1.452-1.967-5.065-1.967-6.047,0-.441.319-.969.695-.969H22.1c0,2.447,1.967,4.814,1.967,6.778v3.986c0,2.891-1.236,3.748-2.2,5.686-.541,1.1-2.722,4.2-2.89,4.952l1.4,2.65-6.037.01C14,23.289,14.305,23.73,13.382,22.787Zm-1.844-8.619a5.317,5.317,0,0,1-4.045-4.108V9.94c0-.9,2.25-1.574,3.36-1.574C10.7,7.7,10.04,7.006,10.04,6.3V5.937l-.012.006c0-.876,1.507-2.569,1.507-4.353a11.919,11.919,0,0,1,1.39,4.115,13.071,13.071,0,0,1-.577,2.54H12.7c1.856,0,4.725.647,3.784,2.743A5.285,5.285,0,0,1,12.7,14.167ZM7.956,9.685c0,.493,1.363.85,1.853.85h.812c.466,0,1.044-.129,1.044-.6V9.808c0-.454-.4-1.207-.812-1.207H10.5C9.9,8.6,7.956,9.18,7.956,9.685Zm4.172-.6v.6c0,.515.719.847,1.272.847h.926c.535,0,1.856-.38,1.856-.724,0-.918-2.887-1.33-3.937-1.33v0A1.746,1.746,0,0,0,12.127,9.083Z" transform="translate(-11339.148 -5353.775)"></path>
                                </g>
                            </svg>