<svg xmlns="http://www.w3.org/2000/svg" width="30.023" height="50" viewBox="0 0 30.023 50">
                                <g id="Group_5527" data-name="Group 5527" transform="translate(7069.147 -420.719)">
                                    <path id="Path_7598" data-name="Path 7598" d="M-7062.1,470.719a3.565,3.565,0,0,1-2.547-1.93,4.984,4.984,0,0,1-.3-2.394.863.863,0,0,0-.409-.8,8.9,8.9,0,0,1-3.762-7.409q-.056-9.178,0-18.357a9.105,9.105,0,0,1,7.1-8.853c.125-.03.248-.072.4-.118v-2.737c0-1.562,0-3.125,0-4.687a2.506,2.506,0,0,1,2.708-2.708q4.76-.007,9.521,0a2.517,2.517,0,0,1,2.753,2.763c.007,2.311.01,4.622-.006,6.933,0,.364.111.492.466.574a9.048,9.048,0,0,1,7.019,8.651q.076,9.3.006,18.6a8.856,8.856,0,0,1-3.8,7.385.761.761,0,0,0-.349.686,8.571,8.571,0,0,1-.111,1.843,3.2,3.2,0,0,1-2.4,2.451l-.372.111Zm21.295-21.728c0-2.961.028-5.923-.018-8.884a8.8,8.8,0,0,0-.391-2.584,7.4,7.4,0,0,0-7.287-5.133c-3.759-.02-7.518-.008-11.276,0a7.95,7.95,0,0,0-1.313.1,7.478,7.478,0,0,0-6.375,7.539c-.012,6-.018,12.008.014,18.013a8.038,8.038,0,0,0,.391,2.489,7.423,7.423,0,0,0,7.249,5.2c3.792.018,7.583.01,11.374,0a7.187,7.187,0,0,0,3.3-.724,7.465,7.465,0,0,0,4.324-7.075C-7040.791,454.946-7040.805,451.968-7040.805,448.991Zm-7.522-18.3c.009-.169.021-.281.021-.394q0-3.418,0-6.835c0-.8-.291-1.077-1.1-1.078q-4.736,0-9.472,0c-.792,0-1.078.294-1.079,1.1q0,3.393,0,6.786c0,.14.019.28.028.42Zm-14.911,36.077c-.179,1.429.477,2.281,1.725,2.283q7.4.012,14.792,0a1.7,1.7,0,0,0,1.669-2.273,13.784,13.784,0,0,1-5.386.613q-3.612,0-7.226,0A14.312,14.312,0,0,1-7063.239,466.769Z"></path>
                                    <path id="Path_7599" data-name="Path 7599" d="M-6985.163,636.039a10.7,10.7,0,0,1-3.677-.634,5.244,5.244,0,0,1-3.107-7.036,6.56,6.56,0,0,1,1.477-2.311c.426-.43.821-.532,1.206-.316.37.207.452.553.344,1.154-.052.29-.245.67.253.8.589.158.931-.154.738-.77a8.4,8.4,0,0,0-.739-1.553,5.188,5.188,0,0,1-.77-2.43,6.708,6.708,0,0,1,2.032-5.109,3.57,3.57,0,0,1,2.032-.986.877.877,0,0,1,1.019.476.808.808,0,0,1-.264,1.083,1.38,1.38,0,0,0-.275,2.193,10.906,10.906,0,0,0,1.525,1.575,28.871,28.871,0,0,1,3.683,3.388,7.385,7.385,0,0,1,1.686,5.54,5.218,5.218,0,0,1-4.155,4.523,9.371,9.371,0,0,1-1.281.267C-6984.009,635.97-6984.587,635.994-6985.163,636.039Zm-5.17-7.365a3.63,3.63,0,0,0,1.664,5.051,8.835,8.835,0,0,0,7.011.005,3.277,3.277,0,0,0,2.081-3.028,6.015,6.015,0,0,0-2.072-4.918c-1.125-1.058-2.345-2.012-3.5-3.037a5.074,5.074,0,0,1-1.59-2.273c-.069-.222-.119-.45-.2-.753-1.026,1.8-1.32,3.5-.1,5.258a4.786,4.786,0,0,1,.651,1.437,2.115,2.115,0,0,1-2.328,2.893A6.918,6.918,0,0,1-6990.333,628.674Z" transform="translate(-68.979 -176.416)"></path>
                                    <path id="Path_7600" data-name="Path 7600" d="M-6954.282,459.448c-.765,0-1.531.01-2.3,0a1.589,1.589,0,0,1-1.7-1.7c-.006-.5-.011-1,0-1.5a1.557,1.557,0,0,1,1.532-1.581q2.459-.049,4.92,0a1.54,1.54,0,0,1,1.524,1.582c.015.546.016,1.094,0,1.64a1.534,1.534,0,0,1-1.547,1.55c-.812.025-1.625.005-2.437.005Zm2.365-3.171h-4.729v1.531h4.729Z" transform="translate(-99.852 -30.735)"></path>
                                </g>
                            </svg>
                            