<svg xmlns="http://www.w3.org/2000/svg" width="27.424" height="50" viewBox="0 0 27.424 50">
                                <g id="Group_5520" data-name="Group 5520" transform="translate(2599.154 -1961.713)">
                                    <path id="Path_7557" data-name="Path 7557" d="M-2571.731,1986.727q0,10.306,0,20.612a4.056,4.056,0,0,1-4.364,4.373h-18.7a4.056,4.056,0,0,1-4.359-4.377q0-20.638,0-41.275a4.049,4.049,0,0,1,4.338-4.346h18.751a4.049,4.049,0,0,1,4.334,4.351Q-2571.73,1976.4-2571.731,1986.727Zm-20.829-23.4h-2.234a2.455,2.455,0,0,0-2.747,2.727q0,20.658,0,41.316a2.456,2.456,0,0,0,2.744,2.73h18.646a2.475,2.475,0,0,0,2.808-2.819v-41.115c0-.151,0-.3,0-.453a2.415,2.415,0,0,0-2.38-2.382c-.739-.016-1.479.006-2.217-.009-.28-.006-.409.058-.463.367-.167.958-.375,1.909-.573,2.861-.125.6-.366.806-.964.807q-5.493.005-10.986,0a.835.835,0,0,1-.973-.8C-2592.122,1965.511-2592.331,1964.458-2592.561,1963.326Zm1.652.019c.145.716.3,1.368.4,2.029.047.3.165.382.454.377,1.041-.015,2.081-.006,3.122-.006,2.014,0,4.028,0,6.042-.009.159,0,.431-.109.458-.215.176-.709.3-1.431.446-2.176Z"></path>
                                    <path id="Path_7558" data-name="Path 7558" d="M-2572.076,2298.675c-.719,0-1.438,0-2.158,0-.578-.005-.928-.307-.928-.783s.348-.781.927-.783q2.207-.007,4.414,0c.577,0,.929.307.929.782s-.353.779-.928.784C-2570.572,2298.679-2571.323,2298.675-2572.076,2298.675Z" transform="translate(-20.849 -290.102)"></path>
                                    <path id="Path_7559" data-name="Path 7559" d="M-2520.089,2298.667c-.082,0-.164,0-.245,0-.572-.013-.924-.32-.916-.8.007-.46.348-.757.891-.771.2-.005.392-.006.588,0a.8.8,0,0,1,.868.795c-.007.461-.348.756-.891.773C-2519.893,2298.669-2519.991,2298.667-2520.089,2298.667Z" transform="translate(-67.388 -290.093)"></path>
                                </g>
                            </svg>