<svg xmlns="http://www.w3.org/2000/svg" width="50" height="49.984" viewBox="0 0 50 49.984">
                                <g id="Group_5533" data-name="Group 5533" transform="translate(7214 758.343)">
                                    <path id="Path_7648" data-name="Path 7648" d="M-7214-730.519a1.274,1.274,0,0,1,1.113-.44c3.335.013,6.671.007,10.006.007h.592v-10.282c-.249,0-.485.007-.722,0a.736.736,0,0,1-.818-.816c-.014-.96-.01-1.92,0-2.879.005-.622.275-.892.9-.894,1.627-.007,3.254,0,4.881,0h.429a19.881,19.881,0,0,1,.613-2.253,8.371,8.371,0,0,1,6.846-5.473c.332-.053.432-.167.427-.49-.016-1.073-.007-2.147,0-3.221,0-.864.21-1.076,1.054-1.076q1.685,0,3.368,0c.7,0,.954.241.963.925.009.667.012,1.334,0,2-.011.63-.271.879-.9.882-.988,0-1.977,0-3.01,0,0,.217.012.378,0,.536-.026.283.085.392.375.433a8.52,8.52,0,0,1,7.239,6.6c.081.347.127.7.2,1.112.153.008.325.024.5.024,1.595,0,3.189,0,4.784,0,.75,0,1,.247,1,.994,0,.846,0,1.692,0,2.538s-.208,1.053-1.067,1.062c-.114,0-.228,0-.341.011a.547.547,0,0,0-.122.046v10.224h10.586c.924,0,1.112.19,1.112,1.115q0,10.225.008,20.449a1.073,1.073,0,0,1-.5,1.029H-7214Zm11.663-12.178h18.788c.782,0,1.136.24,1.125.757s-.332.708-1.111.708h-17.237V-727.1c.171-.062.307-.107.438-.16,3.56-1.421,7.122-2.834,10.675-4.272a1.6,1.6,0,0,1,1.305-.008c3.539,1.43,7.086,2.84,10.632,4.256.156.063.316.117.473.174v-14.123c-.789,0-1.536.008-2.282,0-.515-.008-.8-.277-.8-.721a.716.716,0,0,1,.8-.734c.7-.016,1.4,0,2.1-.005h1.751v-1.637h-26.654Zm28.206,19.556c.166-1.059.166-1.058-.745-1.422q-6.876-2.747-13.756-5.485a1.116,1.116,0,0,0-.722,0c-.764.271-1.511.591-2.265.892q-5.946,2.378-11.895,4.748c-.321.127-.469.285-.422.632a4.922,4.922,0,0,1,0,.638Zm-1.608-6.311c0,.882.015,1.74-.007,2.6a.472.472,0,0,0,.378.523c.654.244,1.3.513,1.947.773.737.3.812.4.812,1.189v14.508h7.1v-19.59Zm-29.658,19.607v-.64q0-6.979,0-13.958c0-.684.106-.837.742-1.089.679-.27,1.361-.532,2.036-.814.132-.056.329-.187.332-.288.025-.936.015-1.874.015-2.8H-7212.5v19.59Zm12.523.008v-.62q0-4.27,0-8.541c0-.764.23-.992.988-.994q2.832,0,5.663,0c.889,0,1.087.2,1.087,1.092q0,4.246,0,8.492v.556h1.628v-11.762H-7194.5v11.778Zm6.241-.006v-8.647h-4.736v8.647Zm-15.668-.005v-11.76h-1.6v11.76Zm3.132.012V-721.61h-1.59v11.773Zm3.14-11.774h-1.6v11.76h1.6Zm14.066-.018v11.777h1.595v-11.777Zm4.723,11.793v-11.776h-1.589v11.776Zm3.13,0v-11.776h-1.589v11.776Zm-15.667-42.059c-1.35.878-2.671,4.423-2.3,6.023h2.334c0-1.942,0-3.841,0-5.74A2.6,2.6,0,0,0-7189.776-751.894Zm1.539,6.036h2.325c.157-1.611-.84-5.325-2.325-6Zm-3.982-5.49c-1.956.779-3.867,3.59-3.78,5.479h2.367A12.9,12.9,0,0,1-7192.219-751.349Zm7.845,5.49h2.384c-.028-2.059-1.969-4.877-3.776-5.458A12.977,12.977,0,0,1-7184.375-745.859Zm-1.468-10.994h-2.394v.825h2.394Z" transform="translate(0 0)"></path>
                                    <path id="Path_7649" data-name="Path 7649" d="M-7098.61-608.968c0,1.437,0,2.873,0,4.31,0,.594-.266.92-.721.908-.431-.01-.7-.34-.7-.894q-.006-4.381,0-8.762c0-.55.277-.879.711-.885s.709.314.711.87C-7098.607-611.935-7098.61-610.451-7098.61-608.968Z" transform="translate(-99.089 -125.12)"></path>
                                    <path id="Path_7650" data-name="Path 7650" d="M-6955.867-608.993q0-2.084,0-4.168c0-.142,0-.285.009-.426a.647.647,0,0,1,.636-.644.651.651,0,0,1,.748.572,4.772,4.772,0,0,1,.032.849q0,4,0,8a2.926,2.926,0,0,1-.017.472.694.694,0,0,1-.76.625.659.659,0,0,1-.641-.69c-.013-.521-.007-1.042-.007-1.563Q-6955.868-607.478-6955.867-608.993Z" transform="translate(-224.441 -125.168)"></path>
                                    <path id="Path_7651" data-name="Path 7651" d="M-7074.6-609.752c0,1.2,0,2.4,0,3.6,0,.573-.246.882-.684.895-.456.013-.738-.317-.739-.9q-.007-3.62,0-7.241c0-.629.4-.985.9-.842a.715.715,0,0,1,.52.8Q-7074.605-611.6-7074.6-609.752Z" transform="translate(-119.962 -125.16)"></path>
                                    <path id="Path_7652" data-name="Path 7652" d="M-6979.885-609.825c0-1.183,0-2.366,0-3.55,0-.594.266-.921.717-.912s.706.343.707.936q.005,3.573,0,7.146c0,.063,0,.127,0,.189a.723.723,0,0,1-.751.743.691.691,0,0,1-.666-.766c-.01-1.262,0-2.524,0-3.786Z" transform="translate(-203.558 -125.148)"></path>
                                    <path id="Path_7653" data-name="Path 7653" d="M-7050.578-610.486c0,.933,0,1.865,0,2.8,0,.578-.248.882-.69.893-.46.011-.732-.311-.733-.9q-.008-2.845,0-5.69c0-.562.264-.885.7-.9.451-.013.723.318.727.908C-7050.573-612.415-7050.578-611.451-7050.578-610.486Z" transform="translate(-140.85 -125.172)"></path>
                                    <path id="Path_7654" data-name="Path 7654" d="M-7003.919-610.542c0-.948,0-1.9,0-2.845,0-.568.256-.886.689-.9.451-.012.733.324.734.908.005,1.9,0,3.794,0,5.69,0,.047,0,.1,0,.142-.042.481-.324.766-.744.75a.69.69,0,0,1-.673-.761c-.014-1,0-1.992,0-2.987Z" transform="translate(-182.661 -125.174)"></path>
                                    <path id="Path_7655" data-name="Path 7655" d="M-7026.547-611.281c0,.711.009,1.422,0,2.133-.009.534-.269.828-.7.833s-.714-.288-.718-.816q-.015-2.156,0-4.313c0-.523.28-.835.7-.84s.709.307.719.823C-7026.538-612.735-7026.547-612.008-7026.547-611.281Z" transform="translate(-161.744 -125.198)"></path>
                                    <path id="Path_7656" data-name="Path 7656" d="M-7037.683-530.23a2.215,2.215,0,0,1,2.217,2.237,2.245,2.245,0,0,1-2.244,2.224,2.248,2.248,0,0,1-2.217-2.251A2.22,2.22,0,0,1-7037.683-530.23Zm-.021,1.431a.777.777,0,0,0-.789.776.8.8,0,0,0,.8.821.8.8,0,0,0,.788-.835A.777.777,0,0,0-7037.7-528.8Z" transform="translate(-151.308 -198.28)"></path>
                                    <path id="Path_7657" data-name="Path 7657" d="M-6883.861-516.386q0-3.458,0-6.916c0-.774.205-.979.979-.983.616,0,1.232-.007,1.848,0s.875.251.875.855q.005,7.082,0,14.163c0,.576-.267.837-.842.845-.647.008-1.295,0-1.943,0-.673,0-.915-.241-.916-.909Q-6883.864-512.857-6883.861-516.386Zm1.461-6.448v12.966h.789v-12.966Z" transform="translate(-286.889 -202.979)"></path>
                                    <path id="Path_7658" data-name="Path 7658" d="M-7186.313-516.343q0,3.458,0,6.916c0,.789-.214,1-1.018,1-.6,0-1.2,0-1.8,0s-.883-.257-.883-.852q-.006-7.082,0-14.163c0-.585.252-.838.833-.848.663-.011,1.327-.008,1.99,0,.646.007.877.243.878.893Q-7186.311-519.872-7186.313-516.343Zm-2.243-6.5v12.966h.79v-12.966Z" transform="translate(-20.943 -202.969)"></path>
                                </g>
                            </svg>