<svg xmlns="http://www.w3.org/2000/svg" width="69.699" height="50" viewBox="0 0 69.699 50">
                                <path id="Path_7577" data-name="Path 7577" d="M-5219.282,732.354c-1.975.012-3.949.029-5.922.034-2.406.006-4.812,0-7.219,0h-.787c.02,1.462-.063,2.817-1.239,3.8a3.4,3.4,0,0,1-2.176.835,3.431,3.431,0,0,1-2.887-1.394,5.2,5.2,0,0,1-.731-3.236c-1.322,0-2.588-.015-3.854.017-.182,0-.388.2-.533.361a12.613,12.613,0,0,1-18.246.745,3.676,3.676,0,0,0-3.1-1.137c-.671.058-1.351.01-2.1.01.012,1.515-.089,2.937-1.386,3.915a3.433,3.433,0,0,1-2.218.72,2.983,2.983,0,0,1-2.735-1.5,17.567,17.567,0,0,1-.946-3.115h-13.625v-16.25h13.842c.044-.6.063-1.133.125-1.664a3.424,3.424,0,0,1,3.409-3,3.444,3.444,0,0,1,3.438,2.97c.064.516.077,1.038.121,1.664,1.3,0,2.6.01,3.909-.014.144,0,.293-.185.425-.3.762-.675,1.524-1.351,2.274-2.04a.825.825,0,0,0,.309-.474c.022-1.743.014-3.486.014-5.327-.868,0-1.677.026-2.485-.005a3.488,3.488,0,0,1-3.339-3.461,3.5,3.5,0,0,1,3.272-3.463c1.065-.056,2.133-.019,3.2-.022.521,0,1.042,0,1.619,0V698.7c-.644,0-1.294.006-1.943,0-1.057-.012-1.491-.435-1.5-1.488-.013-1.018,0-2.037,0-3.159h-.762c-2,0-4,.023-5.993-.006a3.474,3.474,0,0,1-3.485-4.6,3.271,3.271,0,0,1,2.9-2.324,7.68,7.68,0,0,1,.883-.045q14.607,0,29.216-.009a3.652,3.652,0,0,1,3.506,1.772,3.4,3.4,0,0,1-2.494,5.113c-1.731.177-3.49.081-5.237.1-.721.008-1.442,0-2.245,0,0,1.055,0,2.046,0,3.038-.007,1.2-.407,1.6-1.589,1.61-.609,0-1.218,0-1.872,0v2.293c.192.009.408.026.624.026,1.271,0,2.542-.008,3.813,0a3.513,3.513,0,0,1,3.666,3.491,3.526,3.526,0,0,1-3.693,3.467c-.678.007-1.356,0-2.132,0,0,.969,0,1.891,0,2.813a6.765,6.765,0,0,0,.07,2.491c.294.688,1.266,1.054,1.72,1.713a2.94,2.94,0,0,0,3.019,1.145c.694-.051,1.4-.009,2.15-.009-.013-1.471.077-2.848,1.291-3.829a3.423,3.423,0,0,1,2.254-.81,2.965,2.965,0,0,1,2.754,1.464,18.153,18.153,0,0,1,.995,3.185h13.654Zm-39.511-24.339v.759c0,1.7-.014,3.4.007,5.107a1.655,1.655,0,0,1-.784,1.475,11.344,11.344,0,0,0-2.284,1.907,2.945,2.945,0,0,1-2.753,1.211c-1.143-.079-2.3-.017-3.427-.017v11.6c1.234,0,2.416.059,3.588-.017a2.81,2.81,0,0,1,2.516,1.131,10.18,10.18,0,0,0,14.847.675,5.2,5.2,0,0,1,4.7-1.8,13.379,13.379,0,0,0,1.633.006c.172,0,.342-.036.5-.054V718.459c-1.437,0-2.838-.014-4.24.006a1.993,1.993,0,0,1-1.493-.659c-.894-.86-1.823-1.688-2.788-2.467a1.689,1.689,0,0,1-.747-1.428c.018-1.725.006-3.45.006-5.175v-.721Zm-27.865,10.467v11.533h11.525V718.482Zm65.005,11.553V718.5h-11.515v11.532ZM-5254.17,689.4q-7.217,0-14.436,0a5.668,5.668,0,0,0-.814.036,1.034,1.034,0,0,0-.966,1.05,1.03,1.03,0,0,0,.836,1.153,3.713,3.713,0,0,0,.876.082q14.5.006,29.008,0c.159,0,.319.008.477,0,.824-.058,1.3-.5,1.278-1.2-.018-.676-.475-1.078-1.278-1.117-.2-.01-.409,0-.613,0Zm-18.583,34.849q0,4.356,0,8.712a3.927,3.927,0,0,0,.071.878,1.03,1.03,0,0,0,1.08.849,1.037,1.037,0,0,0,1.1-.825,3.173,3.173,0,0,0,.075-.809q.006-8.78,0-17.56a2.964,2.964,0,0,0-.086-.875,1.055,1.055,0,0,0-1.133-.79,1.034,1.034,0,0,0-1.03.831,3.728,3.728,0,0,0-.075.877Q-5272.757,719.895-5272.753,724.251Zm34.87.067q0,4.322,0,8.644a3.956,3.956,0,0,0,.07.878,1.03,1.03,0,0,0,1.079.85,1.038,1.038,0,0,0,1.1-.825,3.172,3.172,0,0,0,.075-.809q.007-8.78,0-17.561a3.558,3.558,0,0,0-.071-.81,1.042,1.042,0,0,0-1.078-.856,1.038,1.038,0,0,0-1.1.831,3.4,3.4,0,0,0-.078.876Q-5237.888,719.928-5237.883,724.318Zm-16.276-18.657h2.11c2.36,0,4.72.007,7.08-.006a1.2,1.2,0,0,0,1.274-1.148,1.206,1.206,0,0,0-1.262-1.163c-.136-.007-.272,0-.408,0q-8.781,0-17.562,0a3.448,3.448,0,0,0-.745.042,1.088,1.088,0,0,0-.7,1.73,1.849,1.849,0,0,0,1.229.523C-5260.149,705.681-5257.154,705.661-5254.159,705.661Zm5.767-9.3V694.1h-11.522v2.257Zm-8.033,2.377v2.235h4.557v-2.235Z" transform="translate(5288.98 -687.065)"></path>
                            </svg>