<svg xmlns="http://www.w3.org/2000/svg" width="54.234" height="50" viewBox="0 0 54.234 50">
                                <g id="Group_5534" data-name="Group 5534" transform="translate(6490.602 1167.128)">
                                    <path id="Path_7659" data-name="Path 7659" d="M-6490.6-914.059c.958-1.8,1.9-3.614,2.88-5.407a1.517,1.517,0,0,1,2.142-.645q2.448,1.336,4.864,2.73a1.632,1.632,0,0,1,.65,2.194,1.584,1.584,0,0,1-2.2.633c-.563-.3-1.118-.607-1.677-.91-.014-.007-.035,0-.134,0,.068.25.118.486.2.712,2.975,8.516,8.782,13.74,17.511,15.191,11.435,1.9,22.16-5.78,24.6-17.372.148-.7.22-1.425.369-2.128a1.573,1.573,0,0,1,1.475-1.256,1.557,1.557,0,0,1,1.534,1.1,2.621,2.621,0,0,1,.054,1.012,25.057,25.057,0,0,1-3.955,10.781,24.671,24.671,0,0,1-16.224,10.976c-12.1,2.432-24.435-5-28.288-17-.053-.166-.121-.326-.206-.552-.515.706-.687,1.645-1.633,1.859-.8.181-1.419-.177-1.965-1.159Z" transform="translate(0 -221.136)"></path>
                                    <path id="Path_7660" data-name="Path 7660" d="M-6359.738-1090.737a3.936,3.936,0,0,1,3.475-3.39,3.84,3.84,0,0,1,3.83,1.928,3.939,3.939,0,0,1-.666,4.854,10.162,10.162,0,0,1,2.141,3.661,10.044,10.044,0,0,1-.136,6.838c-.937,2.476-1.9,4.942-2.867,7.407a.719.719,0,0,0,.123.859,3.893,3.893,0,0,1-.209,5.07,3.6,3.6,0,0,1-4.482.963c-.292-.138-.581-.285-.906-.445a4.167,4.167,0,0,1-3.058,2,4.1,4.1,0,0,1-2.666-.461c-1.933-1.089-2.431-2.624-1.666-5.2-1.146-.572-2.3-1.151-3.459-1.726-1.953-.969-3.908-1.931-5.859-2.9a3.6,3.6,0,0,1-1.724-4.932,3.742,3.742,0,0,1,3.847-2.49c.162.008.391-.208.5-.378,1.362-2.188,2.707-4.388,4.057-6.584a10.069,10.069,0,0,1,7.138-4.867C-6361.5-1090.676-6360.646-1090.67-6359.738-1090.737Zm6.181,10.3a7.138,7.138,0,0,0-8-6.922,6.906,6.906,0,0,0-5.17,3.437q-2.317,3.781-4.642,7.557a2.087,2.087,0,0,1-2.628,1.02c-.586-.223-.72.094-.914.491-.226.464.075.6.4.763q3.319,1.639,6.634,3.286,5.3,2.627,10.6,5.256c.3.151.583.265.757-.143.135-.316.5-.616-.007-.969a2.141,2.141,0,0,1-.871-2.906c1.053-2.721,2.134-5.432,3.146-8.167A25.2,25.2,0,0,0-6353.557-1080.438Zm-2.268-10.471a.674.674,0,0,0-.667.694.644.644,0,0,0,.648.656.673.673,0,0,0,.7-.665A.683.683,0,0,0-6355.824-1090.909Zm-8.062,25.713c-.026.527.12.855.513,1.01a.748.748,0,0,0,.968-.28Z" transform="translate(-100.689 -65.536)"></path>
                                    <path id="Path_7661" data-name="Path 7661" d="M-6414.458-1151.233c.2-.464.341-.832.511-1.186a1.572,1.572,0,0,1,2.047-.83,1.618,1.618,0,0,1,.856,2.113q-1.075,2.644-2.218,5.26a1.464,1.464,0,0,1-2.022.839q-2.613-1.1-5.191-2.281a1.608,1.608,0,0,1-.788-2.1,1.584,1.584,0,0,1,2.031-.871c.331.121.649.278.974.419l1.084.471c-.218-.54-.361-.958-.55-1.353-3.708-7.752-9.73-12.231-18.143-13a21.731,21.731,0,0,0-22.98,17.222c-.25,1.121-.886,1.7-1.783,1.613a1.606,1.606,0,0,1-1.347-2.141,35.655,35.655,0,0,1,1.622-4.959c3.513-7.724,9.364-12.623,17.48-14.5a24.778,24.778,0,0,1,28.145,14.653C-6414.656-1151.683-6414.577-1151.5-6414.458-1151.233Z" transform="translate(-25.447 0)"></path>
                                </g>
                            </svg>