<svg xmlns="http://www.w3.org/2000/svg" width="39.465" height="50.265" viewBox="0 0 39.465 50.265">
                                <g id="Group_5522" data-name="Group 5522" transform="translate(4983.914 -1052.304)">
                                    <path id="Path_7562" data-name="Path 7562" d="M-4945.956,1070.425q-2.042-3.033-4.082-6.065c-.75-1.113-1.494-2.229-2.253-3.335a1,1,0,0,0-1.793-.014c-.1.147-.2.3-.3.447l-2.241,3.322c-.123-.172-.219-.3-.307-.431q-3.771-5.6-7.547-11.188a8.1,8.1,0,0,0-.771-.857h-.59a5.845,5.845,0,0,0-.774.785q-7.081,10.466-14.137,20.951a17.692,17.692,0,0,0-2.723,14.052,18.193,18.193,0,0,0,19.466,14.411,17.659,17.659,0,0,0,13.21-7.443,17.7,17.7,0,0,0,3.435-12.577,1.138,1.138,0,0,1,.364-1.029A8.673,8.673,0,0,0-4945.956,1070.425ZM-4950,1089.2c-2.266,6.45-6.788,10.306-13.551,11.284a16.31,16.31,0,0,1-18.109-13.34,16.48,16.48,0,0,1,2.823-12.433c4.347-6.361,8.622-12.77,12.928-19.158.1-.148.205-.292.332-.472.113.154.213.28.3.413q3.592,5.331,7.189,10.658a.609.609,0,0,1,0,.817c-.8,1.153-1.58,2.327-2.367,3.493a8.73,8.73,0,0,0,.461,10.341,8.721,8.721,0,0,0,10.105,2.6l.613-.251A15.117,15.117,0,0,1-4950,1089.2Zm2.346-9.994a6.768,6.768,0,0,1-7.273,2.658,6.79,6.79,0,0,1-4.994-5.815,6.4,6.4,0,0,1,1-4.315c1.842-2.782,3.724-5.54,5.589-8.307a2.155,2.155,0,0,1,.151-.174c.106.144.205.269.294.4l5.294,7.855A6.744,6.744,0,0,1-4947.655,1079.2Z" transform="translate(0 0)"></path>
                                    <path id="Path_7563" data-name="Path 7563" d="M-4942.479,1253.364a11.362,11.362,0,0,1-3.953-2.216,11.526,11.526,0,0,1-1.91-15.4c.461-.665.432-1.234-.085-1.593s-1.067-.189-1.529.465a13.47,13.47,0,0,0-2.469,7.769,13.389,13.389,0,0,0,2.342,7.582,13.39,13.39,0,0,0,7.012,5.266,1,1,0,0,0,1.424-.8A1.03,1.03,0,0,0-4942.479,1253.364Z" transform="translate(-27.357 -157.827)"></path>
                                    <path id="Path_7564" data-name="Path 7564" d="M-4861.05,1387.953a.951.951,0,0,0-.981.937.95.95,0,0,0,.957,1.01,1,1,0,0,0,1-.984A.993.993,0,0,0-4861.05,1387.953Z" transform="translate(-105.889 -291.603)"></path>
                                    <path id="Path_7565" data-name="Path 7565" d="M-4788.477,1210.431a3.379,3.379,0,0,1-1.219-4.211.985.985,0,0,0-.56-1.291.939.939,0,0,0-1.262.606c-.229.691-.368,1.412-.547,2.119a5.779,5.779,0,0,0,2.417,4.357.987.987,0,0,0,1.4-.191A.979.979,0,0,0-4788.477,1210.431Z" transform="translate(-166.675 -132.537)"></path>
                                    <path id="Path_7566" data-name="Path 7566" d="M-4756.058,1252.867a.966.966,0,0,0-.976.954.99.99,0,0,0,.93,1.007,1,1,0,0,0,1.026-.962A.973.973,0,0,0-4756.058,1252.867Z" transform="translate(-197.109 -174.244)"></path>
                                </g>
                            </svg>